%
M48
M72
T01C0.0150
T02C0.0190
T03C0.0197
T04C0.0200
T05C0.0236
T06C0.0315
T07C0.0400
T08C0.0440
T09C0.0453
T10C0.0787
T11C0.0866
T12C0.1929
%
T01
X18260Y14143
X17260Y15393
X20135Y15018
X21385Y14268
X22635Y14018
X23635Y14518
X24260Y15643
X22885Y12268
X21260Y12893
X20635Y12768
X21010Y11643
X22385Y8768
X27760Y12893
X30385Y15268
X31260Y14893
X31260Y13393
X35010Y9643
X36260Y11643
X39010Y11518
X24260Y20893
X24260Y22143
X21135Y22143
X18010Y22143
X18010Y21143
T02
X16122Y30518
X16122Y30868
X16122Y31218
X17610Y31218
X17610Y30868
X17610Y30518
X18222Y30518
X18222Y30868
X18222Y31218
X19710Y31218
X19710Y30868
X19710Y30518
X20322Y30518
X20322Y30868
X20322Y31218
X21810Y31218
X21810Y30868
X21810Y30518
X22422Y30518
X22422Y30868
X22422Y31218
X23910Y31218
X23910Y30868
X23910Y30518
X24522Y30518
X24522Y30868
X24522Y31218
X26010Y31218
X26010Y30868
X26010Y30518
X26622Y30518
X26622Y30868
X26622Y31218
X28110Y31218
X28110Y30868
X28110Y30518
X28722Y30518
X28722Y30868
X28722Y31218
X30210Y31218
X30210Y30868
X30210Y30518
X30822Y30518
X30822Y30868
X30822Y31218
X32310Y31218
X32310Y30868
X32310Y30518
X32922Y30518
X32922Y30868
X32922Y31218
X34410Y31218
X34410Y30868
X34410Y30518
X35022Y30518
X35022Y30868
X35022Y31218
X36510Y31218
X36510Y30868
X36510Y30518
X37122Y30518
X37122Y30868
X37122Y31218
X38610Y31218
X38610Y30868
X38610Y30518
X39222Y30518
X39222Y30868
X39222Y31218
X40710Y31218
X40710Y30868
X40710Y30518
X41322Y30518
X41322Y30868
X41322Y31218
X41160Y29206
X41510Y29206
X40810Y29206
X40460Y29206
X14635Y32706
X14285Y32706
X13935Y32706
X13935Y34193
X14285Y34193
X14635Y34193
X14635Y34806
X14285Y34806
X13935Y34806
X13935Y36293
X14285Y36293
X14635Y36293
X14635Y36906
X14285Y36906
X13935Y36906
X13935Y38393
X14285Y38393
X14635Y38393
X14635Y39006
X14285Y39006
X13935Y39006
X13935Y40493
X14285Y40493
X14635Y40493
X14635Y41106
X14285Y41106
X13935Y41106
X13935Y42593
X14285Y42593
X14635Y42593
X14635Y43206
X14285Y43206
X13935Y43206
X13935Y44693
X14285Y44693
X14635Y44693
X14635Y45306
X14285Y45306
X13935Y45306
X13935Y46793
X14285Y46793
X14635Y46793
X14635Y47406
X14285Y47406
X13935Y47406
X13935Y48893
X14285Y48893
X14635Y48893
X14635Y49506
X14285Y49506
X13935Y49506
X13935Y50993
X14285Y50993
X14635Y50993
X14635Y51606
X14285Y51606
X13935Y51606
X13935Y53093
X14285Y53093
X14635Y53093
X14635Y53706
X14285Y53706
X13935Y53706
X13935Y55193
X14285Y55193
X14635Y55193
X14635Y55806
X14285Y55806
X13935Y55806
X13935Y57293
X14285Y57293
X14635Y57293
X14635Y57906
X14285Y57906
X13935Y57906
X12622Y57793
X12622Y58143
X12622Y58493
X12622Y58843
T03
X14760Y8893
X14760Y8393
X14760Y7893
X14760Y7393
X14760Y6893
X14760Y6393
X14760Y5893
X14760Y5393
X14760Y4893
X14760Y4393
X14760Y3893
X14760Y9393
X14760Y9893
X14010Y22893
X23760Y29393
T04
X22760Y12893
X23260Y12893
X23760Y12893
X24260Y12893
X24760Y12893
T05
X14010Y17643
X16510Y24393
X19760Y24393
X23010Y24393
X26260Y24393
X29510Y24393
X32260Y23143
X32760Y23143
X33260Y23143
X32760Y21893
X34260Y24393
X41760Y19143
X44760Y11143
X40510Y10643
X43260Y4643
X37760Y4643
X32260Y4643
X12760Y54893
X12760Y55393
X12760Y55893
X12760Y56393
X12010Y56393
X12010Y55893
X12010Y55393
X12010Y54893
T06
X13494Y13527
X11525Y13527
T07
X16010Y8143
X16010Y7143
X16010Y6143
X16010Y5143
X16010Y13143
X16010Y14143
X16010Y15143
X16010Y16143
X10760Y20893
X10760Y21893
X10760Y22893
X9760Y22893
X9760Y21893
X9760Y20893
X14285Y29293
X14860Y29293
X14210Y29893
X14210Y30893
X14210Y31893
X15860Y29293
X16860Y29293
X18010Y29143
X19010Y29143
X20010Y29143
X37660Y29293
X38660Y29293
X39660Y29293
T08
X10010Y16143
X10010Y17143
X38410Y23143
X39410Y23143
T09
X13926Y12464
X11093Y12464
T10
X9460Y9093
X9460Y6993
X9460Y4893
X11560Y4893
X11560Y6993
X11560Y9093
X13660Y9093
X13660Y4893
X13660Y6993
T11
X16760Y10893
X20760Y5143
X9510Y12893
X44510Y21893
T12
X16208Y26593
X13059Y26593
X9909Y26593
X9909Y29743
X9909Y32892
X9909Y36042
X9909Y39191
X9909Y42341
X9909Y45491
X9909Y48640
X9909Y51790
X9909Y54939
X9909Y58089
X9909Y61239
X13059Y61239
X16208Y61239
X19358Y61239
X22508Y61239
X25657Y61239
X28807Y61239
X31956Y61239
X35106Y61239
X38256Y61239
X41405Y61239
X44555Y61239
X44555Y58089
X44555Y54939
X44555Y51790
X44555Y48640
X44555Y45491
X44555Y42341
X44555Y39191
X44555Y36042
X44555Y32892
X44555Y29743
X44555Y26593
X41405Y26593
X38256Y26593
X35106Y26593
X31956Y26593
X28807Y26593
X25657Y26593
X22508Y26593
X19358Y26593
M30
