G75*
%MOIN*%
%OFA0B0*%
%FSLAX25Y25*%
%IPPOS*%
%LPD*%
%AMOC8*
5,1,8,0,0,1.08239X$1,22.5*
%
%ADD10C,0.00000*%
%ADD11R,0.04800X0.08800*%
%ADD12R,0.14173X0.08661*%
%ADD13R,0.21260X0.24409*%
%ADD14R,0.03937X0.06299*%
%ADD15R,0.04724X0.04724*%
%ADD16R,0.07087X0.06693*%
%ADD17R,0.04331X0.03937*%
%ADD18R,0.06299X0.13780*%
%ADD19R,0.03150X0.03150*%
%ADD20R,0.05906X0.06102*%
%ADD21R,0.01575X0.05315*%
%ADD22R,0.05000X0.02200*%
%ADD23R,0.02200X0.05000*%
%ADD24R,0.04724X0.05118*%
%ADD25R,0.05118X0.02362*%
%ADD26R,0.03937X0.03150*%
%ADD27R,0.02500X0.05000*%
%ADD28R,0.05000X0.02500*%
%ADD29R,0.05512X0.03937*%
%ADD30R,0.05906X0.03937*%
D10*
X0085095Y0043933D02*
X0085095Y0096433D01*
X0085097Y0096573D01*
X0085103Y0096713D01*
X0085113Y0096853D01*
X0085126Y0096993D01*
X0085144Y0097132D01*
X0085166Y0097271D01*
X0085191Y0097408D01*
X0085220Y0097546D01*
X0085253Y0097682D01*
X0085290Y0097817D01*
X0085331Y0097951D01*
X0085376Y0098084D01*
X0085424Y0098216D01*
X0085476Y0098346D01*
X0085531Y0098475D01*
X0085590Y0098602D01*
X0085653Y0098728D01*
X0085719Y0098852D01*
X0085788Y0098973D01*
X0085861Y0099093D01*
X0085938Y0099211D01*
X0086017Y0099326D01*
X0086100Y0099440D01*
X0086186Y0099550D01*
X0086275Y0099659D01*
X0086367Y0099765D01*
X0086462Y0099868D01*
X0086559Y0099969D01*
X0086660Y0100066D01*
X0086763Y0100161D01*
X0086869Y0100253D01*
X0086978Y0100342D01*
X0087088Y0100428D01*
X0087202Y0100511D01*
X0087317Y0100590D01*
X0087435Y0100667D01*
X0087555Y0100740D01*
X0087676Y0100809D01*
X0087800Y0100875D01*
X0087926Y0100938D01*
X0088053Y0100997D01*
X0088182Y0101052D01*
X0088312Y0101104D01*
X0088444Y0101152D01*
X0088577Y0101197D01*
X0088711Y0101238D01*
X0088846Y0101275D01*
X0088982Y0101308D01*
X0089120Y0101337D01*
X0089257Y0101362D01*
X0089396Y0101384D01*
X0089535Y0101402D01*
X0089675Y0101415D01*
X0089815Y0101425D01*
X0089955Y0101431D01*
X0090095Y0101433D01*
X0145095Y0101433D01*
X0145193Y0101435D01*
X0145291Y0101441D01*
X0145389Y0101450D01*
X0145486Y0101464D01*
X0145583Y0101481D01*
X0145679Y0101502D01*
X0145774Y0101527D01*
X0145868Y0101555D01*
X0145960Y0101588D01*
X0146052Y0101623D01*
X0146142Y0101663D01*
X0146230Y0101705D01*
X0146317Y0101752D01*
X0146401Y0101801D01*
X0146484Y0101854D01*
X0146564Y0101910D01*
X0146643Y0101970D01*
X0146719Y0102032D01*
X0146792Y0102097D01*
X0146863Y0102165D01*
X0146931Y0102236D01*
X0146996Y0102309D01*
X0147058Y0102385D01*
X0147118Y0102464D01*
X0147174Y0102544D01*
X0147227Y0102627D01*
X0147276Y0102711D01*
X0147323Y0102798D01*
X0147365Y0102886D01*
X0147405Y0102976D01*
X0147440Y0103068D01*
X0147473Y0103160D01*
X0147501Y0103254D01*
X0147526Y0103349D01*
X0147547Y0103445D01*
X0147564Y0103542D01*
X0147578Y0103639D01*
X0147587Y0103737D01*
X0147593Y0103835D01*
X0147595Y0103933D01*
X0147595Y0116433D01*
X0147593Y0116531D01*
X0147587Y0116629D01*
X0147578Y0116727D01*
X0147564Y0116824D01*
X0147547Y0116921D01*
X0147526Y0117017D01*
X0147501Y0117112D01*
X0147473Y0117206D01*
X0147440Y0117298D01*
X0147405Y0117390D01*
X0147365Y0117480D01*
X0147323Y0117568D01*
X0147276Y0117655D01*
X0147227Y0117739D01*
X0147174Y0117822D01*
X0147118Y0117902D01*
X0147058Y0117981D01*
X0146996Y0118057D01*
X0146931Y0118130D01*
X0146863Y0118201D01*
X0146792Y0118269D01*
X0146719Y0118334D01*
X0146643Y0118396D01*
X0146564Y0118456D01*
X0146484Y0118512D01*
X0146401Y0118565D01*
X0146317Y0118614D01*
X0146230Y0118661D01*
X0146142Y0118703D01*
X0146052Y0118743D01*
X0145960Y0118778D01*
X0145868Y0118811D01*
X0145774Y0118839D01*
X0145679Y0118864D01*
X0145583Y0118885D01*
X0145486Y0118902D01*
X0145389Y0118916D01*
X0145291Y0118925D01*
X0145193Y0118931D01*
X0145095Y0118933D01*
X0092595Y0118933D01*
X0092414Y0118935D01*
X0092233Y0118942D01*
X0092052Y0118953D01*
X0091871Y0118968D01*
X0091691Y0118988D01*
X0091511Y0119012D01*
X0091332Y0119040D01*
X0091154Y0119073D01*
X0090977Y0119110D01*
X0090800Y0119151D01*
X0090625Y0119196D01*
X0090450Y0119246D01*
X0090277Y0119300D01*
X0090106Y0119358D01*
X0089935Y0119420D01*
X0089767Y0119487D01*
X0089600Y0119557D01*
X0089434Y0119631D01*
X0089271Y0119710D01*
X0089110Y0119792D01*
X0088950Y0119878D01*
X0088793Y0119968D01*
X0088638Y0120062D01*
X0088485Y0120159D01*
X0088335Y0120261D01*
X0088187Y0120365D01*
X0088041Y0120474D01*
X0087899Y0120585D01*
X0087759Y0120701D01*
X0087622Y0120819D01*
X0087487Y0120941D01*
X0087356Y0121066D01*
X0087228Y0121194D01*
X0087103Y0121325D01*
X0086981Y0121460D01*
X0086863Y0121597D01*
X0086747Y0121737D01*
X0086636Y0121879D01*
X0086527Y0122025D01*
X0086423Y0122173D01*
X0086321Y0122323D01*
X0086224Y0122476D01*
X0086130Y0122631D01*
X0086040Y0122788D01*
X0085954Y0122948D01*
X0085872Y0123109D01*
X0085793Y0123272D01*
X0085719Y0123438D01*
X0085649Y0123605D01*
X0085582Y0123773D01*
X0085520Y0123944D01*
X0085462Y0124115D01*
X0085408Y0124288D01*
X0085358Y0124463D01*
X0085313Y0124638D01*
X0085272Y0124815D01*
X0085235Y0124992D01*
X0085202Y0125170D01*
X0085174Y0125349D01*
X0085150Y0125529D01*
X0085130Y0125709D01*
X0085115Y0125890D01*
X0085104Y0126071D01*
X0085097Y0126252D01*
X0085095Y0126433D01*
X0085095Y0613933D01*
X0085099Y0614235D01*
X0085110Y0614537D01*
X0085128Y0614838D01*
X0085153Y0615139D01*
X0085186Y0615440D01*
X0085226Y0615739D01*
X0085273Y0616037D01*
X0085328Y0616335D01*
X0085389Y0616630D01*
X0085458Y0616924D01*
X0085534Y0617217D01*
X0085617Y0617507D01*
X0085707Y0617796D01*
X0085804Y0618082D01*
X0085907Y0618366D01*
X0086018Y0618647D01*
X0086135Y0618925D01*
X0086259Y0619201D01*
X0086390Y0619473D01*
X0086527Y0619742D01*
X0086670Y0620008D01*
X0086820Y0620270D01*
X0086977Y0620529D01*
X0087139Y0620783D01*
X0087308Y0621034D01*
X0087482Y0621280D01*
X0087663Y0621523D01*
X0087849Y0621760D01*
X0088041Y0621994D01*
X0088239Y0622222D01*
X0088442Y0622446D01*
X0088650Y0622664D01*
X0088864Y0622878D01*
X0089082Y0623086D01*
X0089306Y0623289D01*
X0089534Y0623487D01*
X0089768Y0623679D01*
X0090005Y0623865D01*
X0090248Y0624046D01*
X0090494Y0624220D01*
X0090745Y0624389D01*
X0090999Y0624551D01*
X0091258Y0624708D01*
X0091520Y0624858D01*
X0091786Y0625001D01*
X0092055Y0625138D01*
X0092327Y0625269D01*
X0092603Y0625393D01*
X0092881Y0625510D01*
X0093162Y0625621D01*
X0093446Y0625724D01*
X0093732Y0625821D01*
X0094021Y0625911D01*
X0094311Y0625994D01*
X0094604Y0626070D01*
X0094898Y0626139D01*
X0095193Y0626200D01*
X0095491Y0626255D01*
X0095789Y0626302D01*
X0096088Y0626342D01*
X0096389Y0626375D01*
X0096690Y0626400D01*
X0096991Y0626418D01*
X0097293Y0626429D01*
X0097595Y0626433D01*
X0447595Y0626433D01*
X0447917Y0626410D01*
X0448237Y0626380D01*
X0448557Y0626341D01*
X0448876Y0626295D01*
X0449194Y0626241D01*
X0449510Y0626180D01*
X0449825Y0626111D01*
X0450138Y0626034D01*
X0450449Y0625950D01*
X0450758Y0625858D01*
X0451064Y0625759D01*
X0451369Y0625652D01*
X0451670Y0625538D01*
X0451969Y0625417D01*
X0452264Y0625288D01*
X0452556Y0625153D01*
X0452845Y0625010D01*
X0453131Y0624861D01*
X0453413Y0624704D01*
X0453690Y0624541D01*
X0453964Y0624371D01*
X0454234Y0624195D01*
X0454499Y0624012D01*
X0454760Y0623823D01*
X0455016Y0623627D01*
X0455267Y0623425D01*
X0455514Y0623218D01*
X0455755Y0623004D01*
X0455991Y0622784D01*
X0456221Y0622559D01*
X0456446Y0622329D01*
X0456666Y0622093D01*
X0456880Y0621852D01*
X0457087Y0621605D01*
X0457289Y0621354D01*
X0457485Y0621098D01*
X0457674Y0620837D01*
X0457857Y0620572D01*
X0458033Y0620302D01*
X0458203Y0620028D01*
X0458366Y0619751D01*
X0458523Y0619469D01*
X0458672Y0619183D01*
X0458815Y0618894D01*
X0458950Y0618602D01*
X0459079Y0618307D01*
X0459200Y0618008D01*
X0459314Y0617707D01*
X0459421Y0617402D01*
X0459520Y0617096D01*
X0459612Y0616787D01*
X0459696Y0616476D01*
X0459773Y0616163D01*
X0459842Y0615848D01*
X0459903Y0615532D01*
X0459957Y0615214D01*
X0460003Y0614895D01*
X0460042Y0614575D01*
X0460072Y0614255D01*
X0460095Y0613933D01*
X0460095Y0036433D01*
X0092595Y0036433D01*
X0092414Y0036435D01*
X0092233Y0036442D01*
X0092052Y0036453D01*
X0091871Y0036468D01*
X0091691Y0036488D01*
X0091511Y0036512D01*
X0091332Y0036540D01*
X0091154Y0036573D01*
X0090977Y0036610D01*
X0090800Y0036651D01*
X0090625Y0036696D01*
X0090450Y0036746D01*
X0090277Y0036800D01*
X0090106Y0036858D01*
X0089935Y0036920D01*
X0089767Y0036987D01*
X0089600Y0037057D01*
X0089434Y0037131D01*
X0089271Y0037210D01*
X0089110Y0037292D01*
X0088950Y0037378D01*
X0088793Y0037468D01*
X0088638Y0037562D01*
X0088485Y0037659D01*
X0088335Y0037761D01*
X0088187Y0037865D01*
X0088041Y0037974D01*
X0087899Y0038085D01*
X0087759Y0038201D01*
X0087622Y0038319D01*
X0087487Y0038441D01*
X0087356Y0038566D01*
X0087228Y0038694D01*
X0087103Y0038825D01*
X0086981Y0038960D01*
X0086863Y0039097D01*
X0086747Y0039237D01*
X0086636Y0039379D01*
X0086527Y0039525D01*
X0086423Y0039673D01*
X0086321Y0039823D01*
X0086224Y0039976D01*
X0086130Y0040131D01*
X0086040Y0040288D01*
X0085954Y0040448D01*
X0085872Y0040609D01*
X0085793Y0040772D01*
X0085719Y0040938D01*
X0085649Y0041105D01*
X0085582Y0041273D01*
X0085520Y0041444D01*
X0085462Y0041615D01*
X0085408Y0041788D01*
X0085358Y0041963D01*
X0085313Y0042138D01*
X0085272Y0042315D01*
X0085235Y0042492D01*
X0085202Y0042670D01*
X0085174Y0042849D01*
X0085150Y0043029D01*
X0085130Y0043209D01*
X0085115Y0043390D01*
X0085104Y0043571D01*
X0085097Y0043752D01*
X0085095Y0043933D01*
X0090658Y0048933D02*
X0090660Y0049058D01*
X0090666Y0049183D01*
X0090676Y0049307D01*
X0090690Y0049431D01*
X0090707Y0049555D01*
X0090729Y0049678D01*
X0090755Y0049800D01*
X0090784Y0049922D01*
X0090817Y0050042D01*
X0090855Y0050161D01*
X0090895Y0050280D01*
X0090940Y0050396D01*
X0090988Y0050511D01*
X0091040Y0050625D01*
X0091096Y0050737D01*
X0091155Y0050847D01*
X0091217Y0050955D01*
X0091283Y0051062D01*
X0091352Y0051166D01*
X0091425Y0051267D01*
X0091500Y0051367D01*
X0091579Y0051464D01*
X0091661Y0051558D01*
X0091746Y0051650D01*
X0091833Y0051739D01*
X0091924Y0051825D01*
X0092017Y0051908D01*
X0092113Y0051989D01*
X0092211Y0052066D01*
X0092311Y0052140D01*
X0092414Y0052211D01*
X0092519Y0052278D01*
X0092627Y0052343D01*
X0092736Y0052403D01*
X0092847Y0052461D01*
X0092960Y0052514D01*
X0093074Y0052564D01*
X0093190Y0052611D01*
X0093307Y0052653D01*
X0093426Y0052692D01*
X0093546Y0052728D01*
X0093667Y0052759D01*
X0093789Y0052787D01*
X0093911Y0052810D01*
X0094035Y0052830D01*
X0094159Y0052846D01*
X0094283Y0052858D01*
X0094408Y0052866D01*
X0094533Y0052870D01*
X0094657Y0052870D01*
X0094782Y0052866D01*
X0094907Y0052858D01*
X0095031Y0052846D01*
X0095155Y0052830D01*
X0095279Y0052810D01*
X0095401Y0052787D01*
X0095523Y0052759D01*
X0095644Y0052728D01*
X0095764Y0052692D01*
X0095883Y0052653D01*
X0096000Y0052611D01*
X0096116Y0052564D01*
X0096230Y0052514D01*
X0096343Y0052461D01*
X0096454Y0052403D01*
X0096564Y0052343D01*
X0096671Y0052278D01*
X0096776Y0052211D01*
X0096879Y0052140D01*
X0096979Y0052066D01*
X0097077Y0051989D01*
X0097173Y0051908D01*
X0097266Y0051825D01*
X0097357Y0051739D01*
X0097444Y0051650D01*
X0097529Y0051558D01*
X0097611Y0051464D01*
X0097690Y0051367D01*
X0097765Y0051267D01*
X0097838Y0051166D01*
X0097907Y0051062D01*
X0097973Y0050955D01*
X0098035Y0050847D01*
X0098094Y0050737D01*
X0098150Y0050625D01*
X0098202Y0050511D01*
X0098250Y0050396D01*
X0098295Y0050280D01*
X0098335Y0050161D01*
X0098373Y0050042D01*
X0098406Y0049922D01*
X0098435Y0049800D01*
X0098461Y0049678D01*
X0098483Y0049555D01*
X0098500Y0049431D01*
X0098514Y0049307D01*
X0098524Y0049183D01*
X0098530Y0049058D01*
X0098532Y0048933D01*
X0098530Y0048808D01*
X0098524Y0048683D01*
X0098514Y0048559D01*
X0098500Y0048435D01*
X0098483Y0048311D01*
X0098461Y0048188D01*
X0098435Y0048066D01*
X0098406Y0047944D01*
X0098373Y0047824D01*
X0098335Y0047705D01*
X0098295Y0047586D01*
X0098250Y0047470D01*
X0098202Y0047355D01*
X0098150Y0047241D01*
X0098094Y0047129D01*
X0098035Y0047019D01*
X0097973Y0046911D01*
X0097907Y0046804D01*
X0097838Y0046700D01*
X0097765Y0046599D01*
X0097690Y0046499D01*
X0097611Y0046402D01*
X0097529Y0046308D01*
X0097444Y0046216D01*
X0097357Y0046127D01*
X0097266Y0046041D01*
X0097173Y0045958D01*
X0097077Y0045877D01*
X0096979Y0045800D01*
X0096879Y0045726D01*
X0096776Y0045655D01*
X0096671Y0045588D01*
X0096563Y0045523D01*
X0096454Y0045463D01*
X0096343Y0045405D01*
X0096230Y0045352D01*
X0096116Y0045302D01*
X0096000Y0045255D01*
X0095883Y0045213D01*
X0095764Y0045174D01*
X0095644Y0045138D01*
X0095523Y0045107D01*
X0095401Y0045079D01*
X0095279Y0045056D01*
X0095155Y0045036D01*
X0095031Y0045020D01*
X0094907Y0045008D01*
X0094782Y0045000D01*
X0094657Y0044996D01*
X0094533Y0044996D01*
X0094408Y0045000D01*
X0094283Y0045008D01*
X0094159Y0045020D01*
X0094035Y0045036D01*
X0093911Y0045056D01*
X0093789Y0045079D01*
X0093667Y0045107D01*
X0093546Y0045138D01*
X0093426Y0045174D01*
X0093307Y0045213D01*
X0093190Y0045255D01*
X0093074Y0045302D01*
X0092960Y0045352D01*
X0092847Y0045405D01*
X0092736Y0045463D01*
X0092626Y0045523D01*
X0092519Y0045588D01*
X0092414Y0045655D01*
X0092311Y0045726D01*
X0092211Y0045800D01*
X0092113Y0045877D01*
X0092017Y0045958D01*
X0091924Y0046041D01*
X0091833Y0046127D01*
X0091746Y0046216D01*
X0091661Y0046308D01*
X0091579Y0046402D01*
X0091500Y0046499D01*
X0091425Y0046599D01*
X0091352Y0046700D01*
X0091283Y0046804D01*
X0091217Y0046911D01*
X0091155Y0047019D01*
X0091096Y0047129D01*
X0091040Y0047241D01*
X0090988Y0047355D01*
X0090940Y0047470D01*
X0090895Y0047586D01*
X0090855Y0047705D01*
X0090817Y0047824D01*
X0090784Y0047944D01*
X0090755Y0048066D01*
X0090729Y0048188D01*
X0090707Y0048311D01*
X0090690Y0048435D01*
X0090676Y0048559D01*
X0090666Y0048683D01*
X0090660Y0048808D01*
X0090658Y0048933D01*
X0090658Y0069933D02*
X0090660Y0070058D01*
X0090666Y0070183D01*
X0090676Y0070307D01*
X0090690Y0070431D01*
X0090707Y0070555D01*
X0090729Y0070678D01*
X0090755Y0070800D01*
X0090784Y0070922D01*
X0090817Y0071042D01*
X0090855Y0071161D01*
X0090895Y0071280D01*
X0090940Y0071396D01*
X0090988Y0071511D01*
X0091040Y0071625D01*
X0091096Y0071737D01*
X0091155Y0071847D01*
X0091217Y0071955D01*
X0091283Y0072062D01*
X0091352Y0072166D01*
X0091425Y0072267D01*
X0091500Y0072367D01*
X0091579Y0072464D01*
X0091661Y0072558D01*
X0091746Y0072650D01*
X0091833Y0072739D01*
X0091924Y0072825D01*
X0092017Y0072908D01*
X0092113Y0072989D01*
X0092211Y0073066D01*
X0092311Y0073140D01*
X0092414Y0073211D01*
X0092519Y0073278D01*
X0092627Y0073343D01*
X0092736Y0073403D01*
X0092847Y0073461D01*
X0092960Y0073514D01*
X0093074Y0073564D01*
X0093190Y0073611D01*
X0093307Y0073653D01*
X0093426Y0073692D01*
X0093546Y0073728D01*
X0093667Y0073759D01*
X0093789Y0073787D01*
X0093911Y0073810D01*
X0094035Y0073830D01*
X0094159Y0073846D01*
X0094283Y0073858D01*
X0094408Y0073866D01*
X0094533Y0073870D01*
X0094657Y0073870D01*
X0094782Y0073866D01*
X0094907Y0073858D01*
X0095031Y0073846D01*
X0095155Y0073830D01*
X0095279Y0073810D01*
X0095401Y0073787D01*
X0095523Y0073759D01*
X0095644Y0073728D01*
X0095764Y0073692D01*
X0095883Y0073653D01*
X0096000Y0073611D01*
X0096116Y0073564D01*
X0096230Y0073514D01*
X0096343Y0073461D01*
X0096454Y0073403D01*
X0096564Y0073343D01*
X0096671Y0073278D01*
X0096776Y0073211D01*
X0096879Y0073140D01*
X0096979Y0073066D01*
X0097077Y0072989D01*
X0097173Y0072908D01*
X0097266Y0072825D01*
X0097357Y0072739D01*
X0097444Y0072650D01*
X0097529Y0072558D01*
X0097611Y0072464D01*
X0097690Y0072367D01*
X0097765Y0072267D01*
X0097838Y0072166D01*
X0097907Y0072062D01*
X0097973Y0071955D01*
X0098035Y0071847D01*
X0098094Y0071737D01*
X0098150Y0071625D01*
X0098202Y0071511D01*
X0098250Y0071396D01*
X0098295Y0071280D01*
X0098335Y0071161D01*
X0098373Y0071042D01*
X0098406Y0070922D01*
X0098435Y0070800D01*
X0098461Y0070678D01*
X0098483Y0070555D01*
X0098500Y0070431D01*
X0098514Y0070307D01*
X0098524Y0070183D01*
X0098530Y0070058D01*
X0098532Y0069933D01*
X0098530Y0069808D01*
X0098524Y0069683D01*
X0098514Y0069559D01*
X0098500Y0069435D01*
X0098483Y0069311D01*
X0098461Y0069188D01*
X0098435Y0069066D01*
X0098406Y0068944D01*
X0098373Y0068824D01*
X0098335Y0068705D01*
X0098295Y0068586D01*
X0098250Y0068470D01*
X0098202Y0068355D01*
X0098150Y0068241D01*
X0098094Y0068129D01*
X0098035Y0068019D01*
X0097973Y0067911D01*
X0097907Y0067804D01*
X0097838Y0067700D01*
X0097765Y0067599D01*
X0097690Y0067499D01*
X0097611Y0067402D01*
X0097529Y0067308D01*
X0097444Y0067216D01*
X0097357Y0067127D01*
X0097266Y0067041D01*
X0097173Y0066958D01*
X0097077Y0066877D01*
X0096979Y0066800D01*
X0096879Y0066726D01*
X0096776Y0066655D01*
X0096671Y0066588D01*
X0096563Y0066523D01*
X0096454Y0066463D01*
X0096343Y0066405D01*
X0096230Y0066352D01*
X0096116Y0066302D01*
X0096000Y0066255D01*
X0095883Y0066213D01*
X0095764Y0066174D01*
X0095644Y0066138D01*
X0095523Y0066107D01*
X0095401Y0066079D01*
X0095279Y0066056D01*
X0095155Y0066036D01*
X0095031Y0066020D01*
X0094907Y0066008D01*
X0094782Y0066000D01*
X0094657Y0065996D01*
X0094533Y0065996D01*
X0094408Y0066000D01*
X0094283Y0066008D01*
X0094159Y0066020D01*
X0094035Y0066036D01*
X0093911Y0066056D01*
X0093789Y0066079D01*
X0093667Y0066107D01*
X0093546Y0066138D01*
X0093426Y0066174D01*
X0093307Y0066213D01*
X0093190Y0066255D01*
X0093074Y0066302D01*
X0092960Y0066352D01*
X0092847Y0066405D01*
X0092736Y0066463D01*
X0092626Y0066523D01*
X0092519Y0066588D01*
X0092414Y0066655D01*
X0092311Y0066726D01*
X0092211Y0066800D01*
X0092113Y0066877D01*
X0092017Y0066958D01*
X0091924Y0067041D01*
X0091833Y0067127D01*
X0091746Y0067216D01*
X0091661Y0067308D01*
X0091579Y0067402D01*
X0091500Y0067499D01*
X0091425Y0067599D01*
X0091352Y0067700D01*
X0091283Y0067804D01*
X0091217Y0067911D01*
X0091155Y0068019D01*
X0091096Y0068129D01*
X0091040Y0068241D01*
X0090988Y0068355D01*
X0090940Y0068470D01*
X0090895Y0068586D01*
X0090855Y0068705D01*
X0090817Y0068824D01*
X0090784Y0068944D01*
X0090755Y0069066D01*
X0090729Y0069188D01*
X0090707Y0069311D01*
X0090690Y0069435D01*
X0090676Y0069559D01*
X0090666Y0069683D01*
X0090660Y0069808D01*
X0090658Y0069933D01*
X0090658Y0090933D02*
X0090660Y0091058D01*
X0090666Y0091183D01*
X0090676Y0091307D01*
X0090690Y0091431D01*
X0090707Y0091555D01*
X0090729Y0091678D01*
X0090755Y0091800D01*
X0090784Y0091922D01*
X0090817Y0092042D01*
X0090855Y0092161D01*
X0090895Y0092280D01*
X0090940Y0092396D01*
X0090988Y0092511D01*
X0091040Y0092625D01*
X0091096Y0092737D01*
X0091155Y0092847D01*
X0091217Y0092955D01*
X0091283Y0093062D01*
X0091352Y0093166D01*
X0091425Y0093267D01*
X0091500Y0093367D01*
X0091579Y0093464D01*
X0091661Y0093558D01*
X0091746Y0093650D01*
X0091833Y0093739D01*
X0091924Y0093825D01*
X0092017Y0093908D01*
X0092113Y0093989D01*
X0092211Y0094066D01*
X0092311Y0094140D01*
X0092414Y0094211D01*
X0092519Y0094278D01*
X0092627Y0094343D01*
X0092736Y0094403D01*
X0092847Y0094461D01*
X0092960Y0094514D01*
X0093074Y0094564D01*
X0093190Y0094611D01*
X0093307Y0094653D01*
X0093426Y0094692D01*
X0093546Y0094728D01*
X0093667Y0094759D01*
X0093789Y0094787D01*
X0093911Y0094810D01*
X0094035Y0094830D01*
X0094159Y0094846D01*
X0094283Y0094858D01*
X0094408Y0094866D01*
X0094533Y0094870D01*
X0094657Y0094870D01*
X0094782Y0094866D01*
X0094907Y0094858D01*
X0095031Y0094846D01*
X0095155Y0094830D01*
X0095279Y0094810D01*
X0095401Y0094787D01*
X0095523Y0094759D01*
X0095644Y0094728D01*
X0095764Y0094692D01*
X0095883Y0094653D01*
X0096000Y0094611D01*
X0096116Y0094564D01*
X0096230Y0094514D01*
X0096343Y0094461D01*
X0096454Y0094403D01*
X0096564Y0094343D01*
X0096671Y0094278D01*
X0096776Y0094211D01*
X0096879Y0094140D01*
X0096979Y0094066D01*
X0097077Y0093989D01*
X0097173Y0093908D01*
X0097266Y0093825D01*
X0097357Y0093739D01*
X0097444Y0093650D01*
X0097529Y0093558D01*
X0097611Y0093464D01*
X0097690Y0093367D01*
X0097765Y0093267D01*
X0097838Y0093166D01*
X0097907Y0093062D01*
X0097973Y0092955D01*
X0098035Y0092847D01*
X0098094Y0092737D01*
X0098150Y0092625D01*
X0098202Y0092511D01*
X0098250Y0092396D01*
X0098295Y0092280D01*
X0098335Y0092161D01*
X0098373Y0092042D01*
X0098406Y0091922D01*
X0098435Y0091800D01*
X0098461Y0091678D01*
X0098483Y0091555D01*
X0098500Y0091431D01*
X0098514Y0091307D01*
X0098524Y0091183D01*
X0098530Y0091058D01*
X0098532Y0090933D01*
X0098530Y0090808D01*
X0098524Y0090683D01*
X0098514Y0090559D01*
X0098500Y0090435D01*
X0098483Y0090311D01*
X0098461Y0090188D01*
X0098435Y0090066D01*
X0098406Y0089944D01*
X0098373Y0089824D01*
X0098335Y0089705D01*
X0098295Y0089586D01*
X0098250Y0089470D01*
X0098202Y0089355D01*
X0098150Y0089241D01*
X0098094Y0089129D01*
X0098035Y0089019D01*
X0097973Y0088911D01*
X0097907Y0088804D01*
X0097838Y0088700D01*
X0097765Y0088599D01*
X0097690Y0088499D01*
X0097611Y0088402D01*
X0097529Y0088308D01*
X0097444Y0088216D01*
X0097357Y0088127D01*
X0097266Y0088041D01*
X0097173Y0087958D01*
X0097077Y0087877D01*
X0096979Y0087800D01*
X0096879Y0087726D01*
X0096776Y0087655D01*
X0096671Y0087588D01*
X0096563Y0087523D01*
X0096454Y0087463D01*
X0096343Y0087405D01*
X0096230Y0087352D01*
X0096116Y0087302D01*
X0096000Y0087255D01*
X0095883Y0087213D01*
X0095764Y0087174D01*
X0095644Y0087138D01*
X0095523Y0087107D01*
X0095401Y0087079D01*
X0095279Y0087056D01*
X0095155Y0087036D01*
X0095031Y0087020D01*
X0094907Y0087008D01*
X0094782Y0087000D01*
X0094657Y0086996D01*
X0094533Y0086996D01*
X0094408Y0087000D01*
X0094283Y0087008D01*
X0094159Y0087020D01*
X0094035Y0087036D01*
X0093911Y0087056D01*
X0093789Y0087079D01*
X0093667Y0087107D01*
X0093546Y0087138D01*
X0093426Y0087174D01*
X0093307Y0087213D01*
X0093190Y0087255D01*
X0093074Y0087302D01*
X0092960Y0087352D01*
X0092847Y0087405D01*
X0092736Y0087463D01*
X0092626Y0087523D01*
X0092519Y0087588D01*
X0092414Y0087655D01*
X0092311Y0087726D01*
X0092211Y0087800D01*
X0092113Y0087877D01*
X0092017Y0087958D01*
X0091924Y0088041D01*
X0091833Y0088127D01*
X0091746Y0088216D01*
X0091661Y0088308D01*
X0091579Y0088402D01*
X0091500Y0088499D01*
X0091425Y0088599D01*
X0091352Y0088700D01*
X0091283Y0088804D01*
X0091217Y0088911D01*
X0091155Y0089019D01*
X0091096Y0089129D01*
X0091040Y0089241D01*
X0090988Y0089355D01*
X0090940Y0089470D01*
X0090895Y0089586D01*
X0090855Y0089705D01*
X0090817Y0089824D01*
X0090784Y0089944D01*
X0090755Y0090066D01*
X0090729Y0090188D01*
X0090707Y0090311D01*
X0090690Y0090435D01*
X0090676Y0090559D01*
X0090666Y0090683D01*
X0090660Y0090808D01*
X0090658Y0090933D01*
X0111658Y0090933D02*
X0111660Y0091058D01*
X0111666Y0091183D01*
X0111676Y0091307D01*
X0111690Y0091431D01*
X0111707Y0091555D01*
X0111729Y0091678D01*
X0111755Y0091800D01*
X0111784Y0091922D01*
X0111817Y0092042D01*
X0111855Y0092161D01*
X0111895Y0092280D01*
X0111940Y0092396D01*
X0111988Y0092511D01*
X0112040Y0092625D01*
X0112096Y0092737D01*
X0112155Y0092847D01*
X0112217Y0092955D01*
X0112283Y0093062D01*
X0112352Y0093166D01*
X0112425Y0093267D01*
X0112500Y0093367D01*
X0112579Y0093464D01*
X0112661Y0093558D01*
X0112746Y0093650D01*
X0112833Y0093739D01*
X0112924Y0093825D01*
X0113017Y0093908D01*
X0113113Y0093989D01*
X0113211Y0094066D01*
X0113311Y0094140D01*
X0113414Y0094211D01*
X0113519Y0094278D01*
X0113627Y0094343D01*
X0113736Y0094403D01*
X0113847Y0094461D01*
X0113960Y0094514D01*
X0114074Y0094564D01*
X0114190Y0094611D01*
X0114307Y0094653D01*
X0114426Y0094692D01*
X0114546Y0094728D01*
X0114667Y0094759D01*
X0114789Y0094787D01*
X0114911Y0094810D01*
X0115035Y0094830D01*
X0115159Y0094846D01*
X0115283Y0094858D01*
X0115408Y0094866D01*
X0115533Y0094870D01*
X0115657Y0094870D01*
X0115782Y0094866D01*
X0115907Y0094858D01*
X0116031Y0094846D01*
X0116155Y0094830D01*
X0116279Y0094810D01*
X0116401Y0094787D01*
X0116523Y0094759D01*
X0116644Y0094728D01*
X0116764Y0094692D01*
X0116883Y0094653D01*
X0117000Y0094611D01*
X0117116Y0094564D01*
X0117230Y0094514D01*
X0117343Y0094461D01*
X0117454Y0094403D01*
X0117564Y0094343D01*
X0117671Y0094278D01*
X0117776Y0094211D01*
X0117879Y0094140D01*
X0117979Y0094066D01*
X0118077Y0093989D01*
X0118173Y0093908D01*
X0118266Y0093825D01*
X0118357Y0093739D01*
X0118444Y0093650D01*
X0118529Y0093558D01*
X0118611Y0093464D01*
X0118690Y0093367D01*
X0118765Y0093267D01*
X0118838Y0093166D01*
X0118907Y0093062D01*
X0118973Y0092955D01*
X0119035Y0092847D01*
X0119094Y0092737D01*
X0119150Y0092625D01*
X0119202Y0092511D01*
X0119250Y0092396D01*
X0119295Y0092280D01*
X0119335Y0092161D01*
X0119373Y0092042D01*
X0119406Y0091922D01*
X0119435Y0091800D01*
X0119461Y0091678D01*
X0119483Y0091555D01*
X0119500Y0091431D01*
X0119514Y0091307D01*
X0119524Y0091183D01*
X0119530Y0091058D01*
X0119532Y0090933D01*
X0119530Y0090808D01*
X0119524Y0090683D01*
X0119514Y0090559D01*
X0119500Y0090435D01*
X0119483Y0090311D01*
X0119461Y0090188D01*
X0119435Y0090066D01*
X0119406Y0089944D01*
X0119373Y0089824D01*
X0119335Y0089705D01*
X0119295Y0089586D01*
X0119250Y0089470D01*
X0119202Y0089355D01*
X0119150Y0089241D01*
X0119094Y0089129D01*
X0119035Y0089019D01*
X0118973Y0088911D01*
X0118907Y0088804D01*
X0118838Y0088700D01*
X0118765Y0088599D01*
X0118690Y0088499D01*
X0118611Y0088402D01*
X0118529Y0088308D01*
X0118444Y0088216D01*
X0118357Y0088127D01*
X0118266Y0088041D01*
X0118173Y0087958D01*
X0118077Y0087877D01*
X0117979Y0087800D01*
X0117879Y0087726D01*
X0117776Y0087655D01*
X0117671Y0087588D01*
X0117563Y0087523D01*
X0117454Y0087463D01*
X0117343Y0087405D01*
X0117230Y0087352D01*
X0117116Y0087302D01*
X0117000Y0087255D01*
X0116883Y0087213D01*
X0116764Y0087174D01*
X0116644Y0087138D01*
X0116523Y0087107D01*
X0116401Y0087079D01*
X0116279Y0087056D01*
X0116155Y0087036D01*
X0116031Y0087020D01*
X0115907Y0087008D01*
X0115782Y0087000D01*
X0115657Y0086996D01*
X0115533Y0086996D01*
X0115408Y0087000D01*
X0115283Y0087008D01*
X0115159Y0087020D01*
X0115035Y0087036D01*
X0114911Y0087056D01*
X0114789Y0087079D01*
X0114667Y0087107D01*
X0114546Y0087138D01*
X0114426Y0087174D01*
X0114307Y0087213D01*
X0114190Y0087255D01*
X0114074Y0087302D01*
X0113960Y0087352D01*
X0113847Y0087405D01*
X0113736Y0087463D01*
X0113626Y0087523D01*
X0113519Y0087588D01*
X0113414Y0087655D01*
X0113311Y0087726D01*
X0113211Y0087800D01*
X0113113Y0087877D01*
X0113017Y0087958D01*
X0112924Y0088041D01*
X0112833Y0088127D01*
X0112746Y0088216D01*
X0112661Y0088308D01*
X0112579Y0088402D01*
X0112500Y0088499D01*
X0112425Y0088599D01*
X0112352Y0088700D01*
X0112283Y0088804D01*
X0112217Y0088911D01*
X0112155Y0089019D01*
X0112096Y0089129D01*
X0112040Y0089241D01*
X0111988Y0089355D01*
X0111940Y0089470D01*
X0111895Y0089586D01*
X0111855Y0089705D01*
X0111817Y0089824D01*
X0111784Y0089944D01*
X0111755Y0090066D01*
X0111729Y0090188D01*
X0111707Y0090311D01*
X0111690Y0090435D01*
X0111676Y0090559D01*
X0111666Y0090683D01*
X0111660Y0090808D01*
X0111658Y0090933D01*
X0111658Y0069933D02*
X0111660Y0070058D01*
X0111666Y0070183D01*
X0111676Y0070307D01*
X0111690Y0070431D01*
X0111707Y0070555D01*
X0111729Y0070678D01*
X0111755Y0070800D01*
X0111784Y0070922D01*
X0111817Y0071042D01*
X0111855Y0071161D01*
X0111895Y0071280D01*
X0111940Y0071396D01*
X0111988Y0071511D01*
X0112040Y0071625D01*
X0112096Y0071737D01*
X0112155Y0071847D01*
X0112217Y0071955D01*
X0112283Y0072062D01*
X0112352Y0072166D01*
X0112425Y0072267D01*
X0112500Y0072367D01*
X0112579Y0072464D01*
X0112661Y0072558D01*
X0112746Y0072650D01*
X0112833Y0072739D01*
X0112924Y0072825D01*
X0113017Y0072908D01*
X0113113Y0072989D01*
X0113211Y0073066D01*
X0113311Y0073140D01*
X0113414Y0073211D01*
X0113519Y0073278D01*
X0113627Y0073343D01*
X0113736Y0073403D01*
X0113847Y0073461D01*
X0113960Y0073514D01*
X0114074Y0073564D01*
X0114190Y0073611D01*
X0114307Y0073653D01*
X0114426Y0073692D01*
X0114546Y0073728D01*
X0114667Y0073759D01*
X0114789Y0073787D01*
X0114911Y0073810D01*
X0115035Y0073830D01*
X0115159Y0073846D01*
X0115283Y0073858D01*
X0115408Y0073866D01*
X0115533Y0073870D01*
X0115657Y0073870D01*
X0115782Y0073866D01*
X0115907Y0073858D01*
X0116031Y0073846D01*
X0116155Y0073830D01*
X0116279Y0073810D01*
X0116401Y0073787D01*
X0116523Y0073759D01*
X0116644Y0073728D01*
X0116764Y0073692D01*
X0116883Y0073653D01*
X0117000Y0073611D01*
X0117116Y0073564D01*
X0117230Y0073514D01*
X0117343Y0073461D01*
X0117454Y0073403D01*
X0117564Y0073343D01*
X0117671Y0073278D01*
X0117776Y0073211D01*
X0117879Y0073140D01*
X0117979Y0073066D01*
X0118077Y0072989D01*
X0118173Y0072908D01*
X0118266Y0072825D01*
X0118357Y0072739D01*
X0118444Y0072650D01*
X0118529Y0072558D01*
X0118611Y0072464D01*
X0118690Y0072367D01*
X0118765Y0072267D01*
X0118838Y0072166D01*
X0118907Y0072062D01*
X0118973Y0071955D01*
X0119035Y0071847D01*
X0119094Y0071737D01*
X0119150Y0071625D01*
X0119202Y0071511D01*
X0119250Y0071396D01*
X0119295Y0071280D01*
X0119335Y0071161D01*
X0119373Y0071042D01*
X0119406Y0070922D01*
X0119435Y0070800D01*
X0119461Y0070678D01*
X0119483Y0070555D01*
X0119500Y0070431D01*
X0119514Y0070307D01*
X0119524Y0070183D01*
X0119530Y0070058D01*
X0119532Y0069933D01*
X0119530Y0069808D01*
X0119524Y0069683D01*
X0119514Y0069559D01*
X0119500Y0069435D01*
X0119483Y0069311D01*
X0119461Y0069188D01*
X0119435Y0069066D01*
X0119406Y0068944D01*
X0119373Y0068824D01*
X0119335Y0068705D01*
X0119295Y0068586D01*
X0119250Y0068470D01*
X0119202Y0068355D01*
X0119150Y0068241D01*
X0119094Y0068129D01*
X0119035Y0068019D01*
X0118973Y0067911D01*
X0118907Y0067804D01*
X0118838Y0067700D01*
X0118765Y0067599D01*
X0118690Y0067499D01*
X0118611Y0067402D01*
X0118529Y0067308D01*
X0118444Y0067216D01*
X0118357Y0067127D01*
X0118266Y0067041D01*
X0118173Y0066958D01*
X0118077Y0066877D01*
X0117979Y0066800D01*
X0117879Y0066726D01*
X0117776Y0066655D01*
X0117671Y0066588D01*
X0117563Y0066523D01*
X0117454Y0066463D01*
X0117343Y0066405D01*
X0117230Y0066352D01*
X0117116Y0066302D01*
X0117000Y0066255D01*
X0116883Y0066213D01*
X0116764Y0066174D01*
X0116644Y0066138D01*
X0116523Y0066107D01*
X0116401Y0066079D01*
X0116279Y0066056D01*
X0116155Y0066036D01*
X0116031Y0066020D01*
X0115907Y0066008D01*
X0115782Y0066000D01*
X0115657Y0065996D01*
X0115533Y0065996D01*
X0115408Y0066000D01*
X0115283Y0066008D01*
X0115159Y0066020D01*
X0115035Y0066036D01*
X0114911Y0066056D01*
X0114789Y0066079D01*
X0114667Y0066107D01*
X0114546Y0066138D01*
X0114426Y0066174D01*
X0114307Y0066213D01*
X0114190Y0066255D01*
X0114074Y0066302D01*
X0113960Y0066352D01*
X0113847Y0066405D01*
X0113736Y0066463D01*
X0113626Y0066523D01*
X0113519Y0066588D01*
X0113414Y0066655D01*
X0113311Y0066726D01*
X0113211Y0066800D01*
X0113113Y0066877D01*
X0113017Y0066958D01*
X0112924Y0067041D01*
X0112833Y0067127D01*
X0112746Y0067216D01*
X0112661Y0067308D01*
X0112579Y0067402D01*
X0112500Y0067499D01*
X0112425Y0067599D01*
X0112352Y0067700D01*
X0112283Y0067804D01*
X0112217Y0067911D01*
X0112155Y0068019D01*
X0112096Y0068129D01*
X0112040Y0068241D01*
X0111988Y0068355D01*
X0111940Y0068470D01*
X0111895Y0068586D01*
X0111855Y0068705D01*
X0111817Y0068824D01*
X0111784Y0068944D01*
X0111755Y0069066D01*
X0111729Y0069188D01*
X0111707Y0069311D01*
X0111690Y0069435D01*
X0111676Y0069559D01*
X0111666Y0069683D01*
X0111660Y0069808D01*
X0111658Y0069933D01*
X0111658Y0048933D02*
X0111660Y0049058D01*
X0111666Y0049183D01*
X0111676Y0049307D01*
X0111690Y0049431D01*
X0111707Y0049555D01*
X0111729Y0049678D01*
X0111755Y0049800D01*
X0111784Y0049922D01*
X0111817Y0050042D01*
X0111855Y0050161D01*
X0111895Y0050280D01*
X0111940Y0050396D01*
X0111988Y0050511D01*
X0112040Y0050625D01*
X0112096Y0050737D01*
X0112155Y0050847D01*
X0112217Y0050955D01*
X0112283Y0051062D01*
X0112352Y0051166D01*
X0112425Y0051267D01*
X0112500Y0051367D01*
X0112579Y0051464D01*
X0112661Y0051558D01*
X0112746Y0051650D01*
X0112833Y0051739D01*
X0112924Y0051825D01*
X0113017Y0051908D01*
X0113113Y0051989D01*
X0113211Y0052066D01*
X0113311Y0052140D01*
X0113414Y0052211D01*
X0113519Y0052278D01*
X0113627Y0052343D01*
X0113736Y0052403D01*
X0113847Y0052461D01*
X0113960Y0052514D01*
X0114074Y0052564D01*
X0114190Y0052611D01*
X0114307Y0052653D01*
X0114426Y0052692D01*
X0114546Y0052728D01*
X0114667Y0052759D01*
X0114789Y0052787D01*
X0114911Y0052810D01*
X0115035Y0052830D01*
X0115159Y0052846D01*
X0115283Y0052858D01*
X0115408Y0052866D01*
X0115533Y0052870D01*
X0115657Y0052870D01*
X0115782Y0052866D01*
X0115907Y0052858D01*
X0116031Y0052846D01*
X0116155Y0052830D01*
X0116279Y0052810D01*
X0116401Y0052787D01*
X0116523Y0052759D01*
X0116644Y0052728D01*
X0116764Y0052692D01*
X0116883Y0052653D01*
X0117000Y0052611D01*
X0117116Y0052564D01*
X0117230Y0052514D01*
X0117343Y0052461D01*
X0117454Y0052403D01*
X0117564Y0052343D01*
X0117671Y0052278D01*
X0117776Y0052211D01*
X0117879Y0052140D01*
X0117979Y0052066D01*
X0118077Y0051989D01*
X0118173Y0051908D01*
X0118266Y0051825D01*
X0118357Y0051739D01*
X0118444Y0051650D01*
X0118529Y0051558D01*
X0118611Y0051464D01*
X0118690Y0051367D01*
X0118765Y0051267D01*
X0118838Y0051166D01*
X0118907Y0051062D01*
X0118973Y0050955D01*
X0119035Y0050847D01*
X0119094Y0050737D01*
X0119150Y0050625D01*
X0119202Y0050511D01*
X0119250Y0050396D01*
X0119295Y0050280D01*
X0119335Y0050161D01*
X0119373Y0050042D01*
X0119406Y0049922D01*
X0119435Y0049800D01*
X0119461Y0049678D01*
X0119483Y0049555D01*
X0119500Y0049431D01*
X0119514Y0049307D01*
X0119524Y0049183D01*
X0119530Y0049058D01*
X0119532Y0048933D01*
X0119530Y0048808D01*
X0119524Y0048683D01*
X0119514Y0048559D01*
X0119500Y0048435D01*
X0119483Y0048311D01*
X0119461Y0048188D01*
X0119435Y0048066D01*
X0119406Y0047944D01*
X0119373Y0047824D01*
X0119335Y0047705D01*
X0119295Y0047586D01*
X0119250Y0047470D01*
X0119202Y0047355D01*
X0119150Y0047241D01*
X0119094Y0047129D01*
X0119035Y0047019D01*
X0118973Y0046911D01*
X0118907Y0046804D01*
X0118838Y0046700D01*
X0118765Y0046599D01*
X0118690Y0046499D01*
X0118611Y0046402D01*
X0118529Y0046308D01*
X0118444Y0046216D01*
X0118357Y0046127D01*
X0118266Y0046041D01*
X0118173Y0045958D01*
X0118077Y0045877D01*
X0117979Y0045800D01*
X0117879Y0045726D01*
X0117776Y0045655D01*
X0117671Y0045588D01*
X0117563Y0045523D01*
X0117454Y0045463D01*
X0117343Y0045405D01*
X0117230Y0045352D01*
X0117116Y0045302D01*
X0117000Y0045255D01*
X0116883Y0045213D01*
X0116764Y0045174D01*
X0116644Y0045138D01*
X0116523Y0045107D01*
X0116401Y0045079D01*
X0116279Y0045056D01*
X0116155Y0045036D01*
X0116031Y0045020D01*
X0115907Y0045008D01*
X0115782Y0045000D01*
X0115657Y0044996D01*
X0115533Y0044996D01*
X0115408Y0045000D01*
X0115283Y0045008D01*
X0115159Y0045020D01*
X0115035Y0045036D01*
X0114911Y0045056D01*
X0114789Y0045079D01*
X0114667Y0045107D01*
X0114546Y0045138D01*
X0114426Y0045174D01*
X0114307Y0045213D01*
X0114190Y0045255D01*
X0114074Y0045302D01*
X0113960Y0045352D01*
X0113847Y0045405D01*
X0113736Y0045463D01*
X0113626Y0045523D01*
X0113519Y0045588D01*
X0113414Y0045655D01*
X0113311Y0045726D01*
X0113211Y0045800D01*
X0113113Y0045877D01*
X0113017Y0045958D01*
X0112924Y0046041D01*
X0112833Y0046127D01*
X0112746Y0046216D01*
X0112661Y0046308D01*
X0112579Y0046402D01*
X0112500Y0046499D01*
X0112425Y0046599D01*
X0112352Y0046700D01*
X0112283Y0046804D01*
X0112217Y0046911D01*
X0112155Y0047019D01*
X0112096Y0047129D01*
X0112040Y0047241D01*
X0111988Y0047355D01*
X0111940Y0047470D01*
X0111895Y0047586D01*
X0111855Y0047705D01*
X0111817Y0047824D01*
X0111784Y0047944D01*
X0111755Y0048066D01*
X0111729Y0048188D01*
X0111707Y0048311D01*
X0111690Y0048435D01*
X0111676Y0048559D01*
X0111666Y0048683D01*
X0111660Y0048808D01*
X0111658Y0048933D01*
X0132658Y0048933D02*
X0132660Y0049058D01*
X0132666Y0049183D01*
X0132676Y0049307D01*
X0132690Y0049431D01*
X0132707Y0049555D01*
X0132729Y0049678D01*
X0132755Y0049800D01*
X0132784Y0049922D01*
X0132817Y0050042D01*
X0132855Y0050161D01*
X0132895Y0050280D01*
X0132940Y0050396D01*
X0132988Y0050511D01*
X0133040Y0050625D01*
X0133096Y0050737D01*
X0133155Y0050847D01*
X0133217Y0050955D01*
X0133283Y0051062D01*
X0133352Y0051166D01*
X0133425Y0051267D01*
X0133500Y0051367D01*
X0133579Y0051464D01*
X0133661Y0051558D01*
X0133746Y0051650D01*
X0133833Y0051739D01*
X0133924Y0051825D01*
X0134017Y0051908D01*
X0134113Y0051989D01*
X0134211Y0052066D01*
X0134311Y0052140D01*
X0134414Y0052211D01*
X0134519Y0052278D01*
X0134627Y0052343D01*
X0134736Y0052403D01*
X0134847Y0052461D01*
X0134960Y0052514D01*
X0135074Y0052564D01*
X0135190Y0052611D01*
X0135307Y0052653D01*
X0135426Y0052692D01*
X0135546Y0052728D01*
X0135667Y0052759D01*
X0135789Y0052787D01*
X0135911Y0052810D01*
X0136035Y0052830D01*
X0136159Y0052846D01*
X0136283Y0052858D01*
X0136408Y0052866D01*
X0136533Y0052870D01*
X0136657Y0052870D01*
X0136782Y0052866D01*
X0136907Y0052858D01*
X0137031Y0052846D01*
X0137155Y0052830D01*
X0137279Y0052810D01*
X0137401Y0052787D01*
X0137523Y0052759D01*
X0137644Y0052728D01*
X0137764Y0052692D01*
X0137883Y0052653D01*
X0138000Y0052611D01*
X0138116Y0052564D01*
X0138230Y0052514D01*
X0138343Y0052461D01*
X0138454Y0052403D01*
X0138564Y0052343D01*
X0138671Y0052278D01*
X0138776Y0052211D01*
X0138879Y0052140D01*
X0138979Y0052066D01*
X0139077Y0051989D01*
X0139173Y0051908D01*
X0139266Y0051825D01*
X0139357Y0051739D01*
X0139444Y0051650D01*
X0139529Y0051558D01*
X0139611Y0051464D01*
X0139690Y0051367D01*
X0139765Y0051267D01*
X0139838Y0051166D01*
X0139907Y0051062D01*
X0139973Y0050955D01*
X0140035Y0050847D01*
X0140094Y0050737D01*
X0140150Y0050625D01*
X0140202Y0050511D01*
X0140250Y0050396D01*
X0140295Y0050280D01*
X0140335Y0050161D01*
X0140373Y0050042D01*
X0140406Y0049922D01*
X0140435Y0049800D01*
X0140461Y0049678D01*
X0140483Y0049555D01*
X0140500Y0049431D01*
X0140514Y0049307D01*
X0140524Y0049183D01*
X0140530Y0049058D01*
X0140532Y0048933D01*
X0140530Y0048808D01*
X0140524Y0048683D01*
X0140514Y0048559D01*
X0140500Y0048435D01*
X0140483Y0048311D01*
X0140461Y0048188D01*
X0140435Y0048066D01*
X0140406Y0047944D01*
X0140373Y0047824D01*
X0140335Y0047705D01*
X0140295Y0047586D01*
X0140250Y0047470D01*
X0140202Y0047355D01*
X0140150Y0047241D01*
X0140094Y0047129D01*
X0140035Y0047019D01*
X0139973Y0046911D01*
X0139907Y0046804D01*
X0139838Y0046700D01*
X0139765Y0046599D01*
X0139690Y0046499D01*
X0139611Y0046402D01*
X0139529Y0046308D01*
X0139444Y0046216D01*
X0139357Y0046127D01*
X0139266Y0046041D01*
X0139173Y0045958D01*
X0139077Y0045877D01*
X0138979Y0045800D01*
X0138879Y0045726D01*
X0138776Y0045655D01*
X0138671Y0045588D01*
X0138563Y0045523D01*
X0138454Y0045463D01*
X0138343Y0045405D01*
X0138230Y0045352D01*
X0138116Y0045302D01*
X0138000Y0045255D01*
X0137883Y0045213D01*
X0137764Y0045174D01*
X0137644Y0045138D01*
X0137523Y0045107D01*
X0137401Y0045079D01*
X0137279Y0045056D01*
X0137155Y0045036D01*
X0137031Y0045020D01*
X0136907Y0045008D01*
X0136782Y0045000D01*
X0136657Y0044996D01*
X0136533Y0044996D01*
X0136408Y0045000D01*
X0136283Y0045008D01*
X0136159Y0045020D01*
X0136035Y0045036D01*
X0135911Y0045056D01*
X0135789Y0045079D01*
X0135667Y0045107D01*
X0135546Y0045138D01*
X0135426Y0045174D01*
X0135307Y0045213D01*
X0135190Y0045255D01*
X0135074Y0045302D01*
X0134960Y0045352D01*
X0134847Y0045405D01*
X0134736Y0045463D01*
X0134626Y0045523D01*
X0134519Y0045588D01*
X0134414Y0045655D01*
X0134311Y0045726D01*
X0134211Y0045800D01*
X0134113Y0045877D01*
X0134017Y0045958D01*
X0133924Y0046041D01*
X0133833Y0046127D01*
X0133746Y0046216D01*
X0133661Y0046308D01*
X0133579Y0046402D01*
X0133500Y0046499D01*
X0133425Y0046599D01*
X0133352Y0046700D01*
X0133283Y0046804D01*
X0133217Y0046911D01*
X0133155Y0047019D01*
X0133096Y0047129D01*
X0133040Y0047241D01*
X0132988Y0047355D01*
X0132940Y0047470D01*
X0132895Y0047586D01*
X0132855Y0047705D01*
X0132817Y0047824D01*
X0132784Y0047944D01*
X0132755Y0048066D01*
X0132729Y0048188D01*
X0132707Y0048311D01*
X0132690Y0048435D01*
X0132676Y0048559D01*
X0132666Y0048683D01*
X0132660Y0048808D01*
X0132658Y0048933D01*
X0146611Y0048933D02*
X0146613Y0048995D01*
X0146619Y0049058D01*
X0146629Y0049119D01*
X0146643Y0049180D01*
X0146660Y0049240D01*
X0146681Y0049299D01*
X0146707Y0049356D01*
X0146735Y0049411D01*
X0146767Y0049465D01*
X0146803Y0049516D01*
X0146841Y0049566D01*
X0146883Y0049612D01*
X0146927Y0049656D01*
X0146975Y0049697D01*
X0147024Y0049735D01*
X0147076Y0049769D01*
X0147130Y0049800D01*
X0147186Y0049828D01*
X0147244Y0049852D01*
X0147303Y0049873D01*
X0147363Y0049889D01*
X0147424Y0049902D01*
X0147486Y0049911D01*
X0147548Y0049916D01*
X0147611Y0049917D01*
X0147673Y0049914D01*
X0147735Y0049907D01*
X0147797Y0049896D01*
X0147857Y0049881D01*
X0147917Y0049863D01*
X0147975Y0049841D01*
X0148032Y0049815D01*
X0148087Y0049785D01*
X0148140Y0049752D01*
X0148191Y0049716D01*
X0148239Y0049677D01*
X0148285Y0049634D01*
X0148328Y0049589D01*
X0148368Y0049541D01*
X0148405Y0049491D01*
X0148439Y0049438D01*
X0148470Y0049384D01*
X0148496Y0049328D01*
X0148520Y0049270D01*
X0148539Y0049210D01*
X0148555Y0049150D01*
X0148567Y0049088D01*
X0148575Y0049027D01*
X0148579Y0048964D01*
X0148579Y0048902D01*
X0148575Y0048839D01*
X0148567Y0048778D01*
X0148555Y0048716D01*
X0148539Y0048656D01*
X0148520Y0048596D01*
X0148496Y0048538D01*
X0148470Y0048482D01*
X0148439Y0048428D01*
X0148405Y0048375D01*
X0148368Y0048325D01*
X0148328Y0048277D01*
X0148285Y0048232D01*
X0148239Y0048189D01*
X0148191Y0048150D01*
X0148140Y0048114D01*
X0148087Y0048081D01*
X0148032Y0048051D01*
X0147975Y0048025D01*
X0147917Y0048003D01*
X0147857Y0047985D01*
X0147797Y0047970D01*
X0147735Y0047959D01*
X0147673Y0047952D01*
X0147611Y0047949D01*
X0147548Y0047950D01*
X0147486Y0047955D01*
X0147424Y0047964D01*
X0147363Y0047977D01*
X0147303Y0047993D01*
X0147244Y0048014D01*
X0147186Y0048038D01*
X0147130Y0048066D01*
X0147076Y0048097D01*
X0147024Y0048131D01*
X0146975Y0048169D01*
X0146927Y0048210D01*
X0146883Y0048254D01*
X0146841Y0048300D01*
X0146803Y0048350D01*
X0146767Y0048401D01*
X0146735Y0048455D01*
X0146707Y0048510D01*
X0146681Y0048567D01*
X0146660Y0048626D01*
X0146643Y0048686D01*
X0146629Y0048747D01*
X0146619Y0048808D01*
X0146613Y0048871D01*
X0146611Y0048933D01*
X0146611Y0043933D02*
X0146613Y0043995D01*
X0146619Y0044058D01*
X0146629Y0044119D01*
X0146643Y0044180D01*
X0146660Y0044240D01*
X0146681Y0044299D01*
X0146707Y0044356D01*
X0146735Y0044411D01*
X0146767Y0044465D01*
X0146803Y0044516D01*
X0146841Y0044566D01*
X0146883Y0044612D01*
X0146927Y0044656D01*
X0146975Y0044697D01*
X0147024Y0044735D01*
X0147076Y0044769D01*
X0147130Y0044800D01*
X0147186Y0044828D01*
X0147244Y0044852D01*
X0147303Y0044873D01*
X0147363Y0044889D01*
X0147424Y0044902D01*
X0147486Y0044911D01*
X0147548Y0044916D01*
X0147611Y0044917D01*
X0147673Y0044914D01*
X0147735Y0044907D01*
X0147797Y0044896D01*
X0147857Y0044881D01*
X0147917Y0044863D01*
X0147975Y0044841D01*
X0148032Y0044815D01*
X0148087Y0044785D01*
X0148140Y0044752D01*
X0148191Y0044716D01*
X0148239Y0044677D01*
X0148285Y0044634D01*
X0148328Y0044589D01*
X0148368Y0044541D01*
X0148405Y0044491D01*
X0148439Y0044438D01*
X0148470Y0044384D01*
X0148496Y0044328D01*
X0148520Y0044270D01*
X0148539Y0044210D01*
X0148555Y0044150D01*
X0148567Y0044088D01*
X0148575Y0044027D01*
X0148579Y0043964D01*
X0148579Y0043902D01*
X0148575Y0043839D01*
X0148567Y0043778D01*
X0148555Y0043716D01*
X0148539Y0043656D01*
X0148520Y0043596D01*
X0148496Y0043538D01*
X0148470Y0043482D01*
X0148439Y0043428D01*
X0148405Y0043375D01*
X0148368Y0043325D01*
X0148328Y0043277D01*
X0148285Y0043232D01*
X0148239Y0043189D01*
X0148191Y0043150D01*
X0148140Y0043114D01*
X0148087Y0043081D01*
X0148032Y0043051D01*
X0147975Y0043025D01*
X0147917Y0043003D01*
X0147857Y0042985D01*
X0147797Y0042970D01*
X0147735Y0042959D01*
X0147673Y0042952D01*
X0147611Y0042949D01*
X0147548Y0042950D01*
X0147486Y0042955D01*
X0147424Y0042964D01*
X0147363Y0042977D01*
X0147303Y0042993D01*
X0147244Y0043014D01*
X0147186Y0043038D01*
X0147130Y0043066D01*
X0147076Y0043097D01*
X0147024Y0043131D01*
X0146975Y0043169D01*
X0146927Y0043210D01*
X0146883Y0043254D01*
X0146841Y0043300D01*
X0146803Y0043350D01*
X0146767Y0043401D01*
X0146735Y0043455D01*
X0146707Y0043510D01*
X0146681Y0043567D01*
X0146660Y0043626D01*
X0146643Y0043686D01*
X0146629Y0043747D01*
X0146619Y0043808D01*
X0146613Y0043871D01*
X0146611Y0043933D01*
X0146611Y0038933D02*
X0146613Y0038995D01*
X0146619Y0039058D01*
X0146629Y0039119D01*
X0146643Y0039180D01*
X0146660Y0039240D01*
X0146681Y0039299D01*
X0146707Y0039356D01*
X0146735Y0039411D01*
X0146767Y0039465D01*
X0146803Y0039516D01*
X0146841Y0039566D01*
X0146883Y0039612D01*
X0146927Y0039656D01*
X0146975Y0039697D01*
X0147024Y0039735D01*
X0147076Y0039769D01*
X0147130Y0039800D01*
X0147186Y0039828D01*
X0147244Y0039852D01*
X0147303Y0039873D01*
X0147363Y0039889D01*
X0147424Y0039902D01*
X0147486Y0039911D01*
X0147548Y0039916D01*
X0147611Y0039917D01*
X0147673Y0039914D01*
X0147735Y0039907D01*
X0147797Y0039896D01*
X0147857Y0039881D01*
X0147917Y0039863D01*
X0147975Y0039841D01*
X0148032Y0039815D01*
X0148087Y0039785D01*
X0148140Y0039752D01*
X0148191Y0039716D01*
X0148239Y0039677D01*
X0148285Y0039634D01*
X0148328Y0039589D01*
X0148368Y0039541D01*
X0148405Y0039491D01*
X0148439Y0039438D01*
X0148470Y0039384D01*
X0148496Y0039328D01*
X0148520Y0039270D01*
X0148539Y0039210D01*
X0148555Y0039150D01*
X0148567Y0039088D01*
X0148575Y0039027D01*
X0148579Y0038964D01*
X0148579Y0038902D01*
X0148575Y0038839D01*
X0148567Y0038778D01*
X0148555Y0038716D01*
X0148539Y0038656D01*
X0148520Y0038596D01*
X0148496Y0038538D01*
X0148470Y0038482D01*
X0148439Y0038428D01*
X0148405Y0038375D01*
X0148368Y0038325D01*
X0148328Y0038277D01*
X0148285Y0038232D01*
X0148239Y0038189D01*
X0148191Y0038150D01*
X0148140Y0038114D01*
X0148087Y0038081D01*
X0148032Y0038051D01*
X0147975Y0038025D01*
X0147917Y0038003D01*
X0147857Y0037985D01*
X0147797Y0037970D01*
X0147735Y0037959D01*
X0147673Y0037952D01*
X0147611Y0037949D01*
X0147548Y0037950D01*
X0147486Y0037955D01*
X0147424Y0037964D01*
X0147363Y0037977D01*
X0147303Y0037993D01*
X0147244Y0038014D01*
X0147186Y0038038D01*
X0147130Y0038066D01*
X0147076Y0038097D01*
X0147024Y0038131D01*
X0146975Y0038169D01*
X0146927Y0038210D01*
X0146883Y0038254D01*
X0146841Y0038300D01*
X0146803Y0038350D01*
X0146767Y0038401D01*
X0146735Y0038455D01*
X0146707Y0038510D01*
X0146681Y0038567D01*
X0146660Y0038626D01*
X0146643Y0038686D01*
X0146629Y0038747D01*
X0146619Y0038808D01*
X0146613Y0038871D01*
X0146611Y0038933D01*
X0146611Y0053933D02*
X0146613Y0053995D01*
X0146619Y0054058D01*
X0146629Y0054119D01*
X0146643Y0054180D01*
X0146660Y0054240D01*
X0146681Y0054299D01*
X0146707Y0054356D01*
X0146735Y0054411D01*
X0146767Y0054465D01*
X0146803Y0054516D01*
X0146841Y0054566D01*
X0146883Y0054612D01*
X0146927Y0054656D01*
X0146975Y0054697D01*
X0147024Y0054735D01*
X0147076Y0054769D01*
X0147130Y0054800D01*
X0147186Y0054828D01*
X0147244Y0054852D01*
X0147303Y0054873D01*
X0147363Y0054889D01*
X0147424Y0054902D01*
X0147486Y0054911D01*
X0147548Y0054916D01*
X0147611Y0054917D01*
X0147673Y0054914D01*
X0147735Y0054907D01*
X0147797Y0054896D01*
X0147857Y0054881D01*
X0147917Y0054863D01*
X0147975Y0054841D01*
X0148032Y0054815D01*
X0148087Y0054785D01*
X0148140Y0054752D01*
X0148191Y0054716D01*
X0148239Y0054677D01*
X0148285Y0054634D01*
X0148328Y0054589D01*
X0148368Y0054541D01*
X0148405Y0054491D01*
X0148439Y0054438D01*
X0148470Y0054384D01*
X0148496Y0054328D01*
X0148520Y0054270D01*
X0148539Y0054210D01*
X0148555Y0054150D01*
X0148567Y0054088D01*
X0148575Y0054027D01*
X0148579Y0053964D01*
X0148579Y0053902D01*
X0148575Y0053839D01*
X0148567Y0053778D01*
X0148555Y0053716D01*
X0148539Y0053656D01*
X0148520Y0053596D01*
X0148496Y0053538D01*
X0148470Y0053482D01*
X0148439Y0053428D01*
X0148405Y0053375D01*
X0148368Y0053325D01*
X0148328Y0053277D01*
X0148285Y0053232D01*
X0148239Y0053189D01*
X0148191Y0053150D01*
X0148140Y0053114D01*
X0148087Y0053081D01*
X0148032Y0053051D01*
X0147975Y0053025D01*
X0147917Y0053003D01*
X0147857Y0052985D01*
X0147797Y0052970D01*
X0147735Y0052959D01*
X0147673Y0052952D01*
X0147611Y0052949D01*
X0147548Y0052950D01*
X0147486Y0052955D01*
X0147424Y0052964D01*
X0147363Y0052977D01*
X0147303Y0052993D01*
X0147244Y0053014D01*
X0147186Y0053038D01*
X0147130Y0053066D01*
X0147076Y0053097D01*
X0147024Y0053131D01*
X0146975Y0053169D01*
X0146927Y0053210D01*
X0146883Y0053254D01*
X0146841Y0053300D01*
X0146803Y0053350D01*
X0146767Y0053401D01*
X0146735Y0053455D01*
X0146707Y0053510D01*
X0146681Y0053567D01*
X0146660Y0053626D01*
X0146643Y0053686D01*
X0146629Y0053747D01*
X0146619Y0053808D01*
X0146613Y0053871D01*
X0146611Y0053933D01*
X0146611Y0058933D02*
X0146613Y0058995D01*
X0146619Y0059058D01*
X0146629Y0059119D01*
X0146643Y0059180D01*
X0146660Y0059240D01*
X0146681Y0059299D01*
X0146707Y0059356D01*
X0146735Y0059411D01*
X0146767Y0059465D01*
X0146803Y0059516D01*
X0146841Y0059566D01*
X0146883Y0059612D01*
X0146927Y0059656D01*
X0146975Y0059697D01*
X0147024Y0059735D01*
X0147076Y0059769D01*
X0147130Y0059800D01*
X0147186Y0059828D01*
X0147244Y0059852D01*
X0147303Y0059873D01*
X0147363Y0059889D01*
X0147424Y0059902D01*
X0147486Y0059911D01*
X0147548Y0059916D01*
X0147611Y0059917D01*
X0147673Y0059914D01*
X0147735Y0059907D01*
X0147797Y0059896D01*
X0147857Y0059881D01*
X0147917Y0059863D01*
X0147975Y0059841D01*
X0148032Y0059815D01*
X0148087Y0059785D01*
X0148140Y0059752D01*
X0148191Y0059716D01*
X0148239Y0059677D01*
X0148285Y0059634D01*
X0148328Y0059589D01*
X0148368Y0059541D01*
X0148405Y0059491D01*
X0148439Y0059438D01*
X0148470Y0059384D01*
X0148496Y0059328D01*
X0148520Y0059270D01*
X0148539Y0059210D01*
X0148555Y0059150D01*
X0148567Y0059088D01*
X0148575Y0059027D01*
X0148579Y0058964D01*
X0148579Y0058902D01*
X0148575Y0058839D01*
X0148567Y0058778D01*
X0148555Y0058716D01*
X0148539Y0058656D01*
X0148520Y0058596D01*
X0148496Y0058538D01*
X0148470Y0058482D01*
X0148439Y0058428D01*
X0148405Y0058375D01*
X0148368Y0058325D01*
X0148328Y0058277D01*
X0148285Y0058232D01*
X0148239Y0058189D01*
X0148191Y0058150D01*
X0148140Y0058114D01*
X0148087Y0058081D01*
X0148032Y0058051D01*
X0147975Y0058025D01*
X0147917Y0058003D01*
X0147857Y0057985D01*
X0147797Y0057970D01*
X0147735Y0057959D01*
X0147673Y0057952D01*
X0147611Y0057949D01*
X0147548Y0057950D01*
X0147486Y0057955D01*
X0147424Y0057964D01*
X0147363Y0057977D01*
X0147303Y0057993D01*
X0147244Y0058014D01*
X0147186Y0058038D01*
X0147130Y0058066D01*
X0147076Y0058097D01*
X0147024Y0058131D01*
X0146975Y0058169D01*
X0146927Y0058210D01*
X0146883Y0058254D01*
X0146841Y0058300D01*
X0146803Y0058350D01*
X0146767Y0058401D01*
X0146735Y0058455D01*
X0146707Y0058510D01*
X0146681Y0058567D01*
X0146660Y0058626D01*
X0146643Y0058686D01*
X0146629Y0058747D01*
X0146619Y0058808D01*
X0146613Y0058871D01*
X0146611Y0058933D01*
X0146611Y0063933D02*
X0146613Y0063995D01*
X0146619Y0064058D01*
X0146629Y0064119D01*
X0146643Y0064180D01*
X0146660Y0064240D01*
X0146681Y0064299D01*
X0146707Y0064356D01*
X0146735Y0064411D01*
X0146767Y0064465D01*
X0146803Y0064516D01*
X0146841Y0064566D01*
X0146883Y0064612D01*
X0146927Y0064656D01*
X0146975Y0064697D01*
X0147024Y0064735D01*
X0147076Y0064769D01*
X0147130Y0064800D01*
X0147186Y0064828D01*
X0147244Y0064852D01*
X0147303Y0064873D01*
X0147363Y0064889D01*
X0147424Y0064902D01*
X0147486Y0064911D01*
X0147548Y0064916D01*
X0147611Y0064917D01*
X0147673Y0064914D01*
X0147735Y0064907D01*
X0147797Y0064896D01*
X0147857Y0064881D01*
X0147917Y0064863D01*
X0147975Y0064841D01*
X0148032Y0064815D01*
X0148087Y0064785D01*
X0148140Y0064752D01*
X0148191Y0064716D01*
X0148239Y0064677D01*
X0148285Y0064634D01*
X0148328Y0064589D01*
X0148368Y0064541D01*
X0148405Y0064491D01*
X0148439Y0064438D01*
X0148470Y0064384D01*
X0148496Y0064328D01*
X0148520Y0064270D01*
X0148539Y0064210D01*
X0148555Y0064150D01*
X0148567Y0064088D01*
X0148575Y0064027D01*
X0148579Y0063964D01*
X0148579Y0063902D01*
X0148575Y0063839D01*
X0148567Y0063778D01*
X0148555Y0063716D01*
X0148539Y0063656D01*
X0148520Y0063596D01*
X0148496Y0063538D01*
X0148470Y0063482D01*
X0148439Y0063428D01*
X0148405Y0063375D01*
X0148368Y0063325D01*
X0148328Y0063277D01*
X0148285Y0063232D01*
X0148239Y0063189D01*
X0148191Y0063150D01*
X0148140Y0063114D01*
X0148087Y0063081D01*
X0148032Y0063051D01*
X0147975Y0063025D01*
X0147917Y0063003D01*
X0147857Y0062985D01*
X0147797Y0062970D01*
X0147735Y0062959D01*
X0147673Y0062952D01*
X0147611Y0062949D01*
X0147548Y0062950D01*
X0147486Y0062955D01*
X0147424Y0062964D01*
X0147363Y0062977D01*
X0147303Y0062993D01*
X0147244Y0063014D01*
X0147186Y0063038D01*
X0147130Y0063066D01*
X0147076Y0063097D01*
X0147024Y0063131D01*
X0146975Y0063169D01*
X0146927Y0063210D01*
X0146883Y0063254D01*
X0146841Y0063300D01*
X0146803Y0063350D01*
X0146767Y0063401D01*
X0146735Y0063455D01*
X0146707Y0063510D01*
X0146681Y0063567D01*
X0146660Y0063626D01*
X0146643Y0063686D01*
X0146629Y0063747D01*
X0146619Y0063808D01*
X0146613Y0063871D01*
X0146611Y0063933D01*
X0146611Y0068933D02*
X0146613Y0068995D01*
X0146619Y0069058D01*
X0146629Y0069119D01*
X0146643Y0069180D01*
X0146660Y0069240D01*
X0146681Y0069299D01*
X0146707Y0069356D01*
X0146735Y0069411D01*
X0146767Y0069465D01*
X0146803Y0069516D01*
X0146841Y0069566D01*
X0146883Y0069612D01*
X0146927Y0069656D01*
X0146975Y0069697D01*
X0147024Y0069735D01*
X0147076Y0069769D01*
X0147130Y0069800D01*
X0147186Y0069828D01*
X0147244Y0069852D01*
X0147303Y0069873D01*
X0147363Y0069889D01*
X0147424Y0069902D01*
X0147486Y0069911D01*
X0147548Y0069916D01*
X0147611Y0069917D01*
X0147673Y0069914D01*
X0147735Y0069907D01*
X0147797Y0069896D01*
X0147857Y0069881D01*
X0147917Y0069863D01*
X0147975Y0069841D01*
X0148032Y0069815D01*
X0148087Y0069785D01*
X0148140Y0069752D01*
X0148191Y0069716D01*
X0148239Y0069677D01*
X0148285Y0069634D01*
X0148328Y0069589D01*
X0148368Y0069541D01*
X0148405Y0069491D01*
X0148439Y0069438D01*
X0148470Y0069384D01*
X0148496Y0069328D01*
X0148520Y0069270D01*
X0148539Y0069210D01*
X0148555Y0069150D01*
X0148567Y0069088D01*
X0148575Y0069027D01*
X0148579Y0068964D01*
X0148579Y0068902D01*
X0148575Y0068839D01*
X0148567Y0068778D01*
X0148555Y0068716D01*
X0148539Y0068656D01*
X0148520Y0068596D01*
X0148496Y0068538D01*
X0148470Y0068482D01*
X0148439Y0068428D01*
X0148405Y0068375D01*
X0148368Y0068325D01*
X0148328Y0068277D01*
X0148285Y0068232D01*
X0148239Y0068189D01*
X0148191Y0068150D01*
X0148140Y0068114D01*
X0148087Y0068081D01*
X0148032Y0068051D01*
X0147975Y0068025D01*
X0147917Y0068003D01*
X0147857Y0067985D01*
X0147797Y0067970D01*
X0147735Y0067959D01*
X0147673Y0067952D01*
X0147611Y0067949D01*
X0147548Y0067950D01*
X0147486Y0067955D01*
X0147424Y0067964D01*
X0147363Y0067977D01*
X0147303Y0067993D01*
X0147244Y0068014D01*
X0147186Y0068038D01*
X0147130Y0068066D01*
X0147076Y0068097D01*
X0147024Y0068131D01*
X0146975Y0068169D01*
X0146927Y0068210D01*
X0146883Y0068254D01*
X0146841Y0068300D01*
X0146803Y0068350D01*
X0146767Y0068401D01*
X0146735Y0068455D01*
X0146707Y0068510D01*
X0146681Y0068567D01*
X0146660Y0068626D01*
X0146643Y0068686D01*
X0146629Y0068747D01*
X0146619Y0068808D01*
X0146613Y0068871D01*
X0146611Y0068933D01*
X0146611Y0073933D02*
X0146613Y0073995D01*
X0146619Y0074058D01*
X0146629Y0074119D01*
X0146643Y0074180D01*
X0146660Y0074240D01*
X0146681Y0074299D01*
X0146707Y0074356D01*
X0146735Y0074411D01*
X0146767Y0074465D01*
X0146803Y0074516D01*
X0146841Y0074566D01*
X0146883Y0074612D01*
X0146927Y0074656D01*
X0146975Y0074697D01*
X0147024Y0074735D01*
X0147076Y0074769D01*
X0147130Y0074800D01*
X0147186Y0074828D01*
X0147244Y0074852D01*
X0147303Y0074873D01*
X0147363Y0074889D01*
X0147424Y0074902D01*
X0147486Y0074911D01*
X0147548Y0074916D01*
X0147611Y0074917D01*
X0147673Y0074914D01*
X0147735Y0074907D01*
X0147797Y0074896D01*
X0147857Y0074881D01*
X0147917Y0074863D01*
X0147975Y0074841D01*
X0148032Y0074815D01*
X0148087Y0074785D01*
X0148140Y0074752D01*
X0148191Y0074716D01*
X0148239Y0074677D01*
X0148285Y0074634D01*
X0148328Y0074589D01*
X0148368Y0074541D01*
X0148405Y0074491D01*
X0148439Y0074438D01*
X0148470Y0074384D01*
X0148496Y0074328D01*
X0148520Y0074270D01*
X0148539Y0074210D01*
X0148555Y0074150D01*
X0148567Y0074088D01*
X0148575Y0074027D01*
X0148579Y0073964D01*
X0148579Y0073902D01*
X0148575Y0073839D01*
X0148567Y0073778D01*
X0148555Y0073716D01*
X0148539Y0073656D01*
X0148520Y0073596D01*
X0148496Y0073538D01*
X0148470Y0073482D01*
X0148439Y0073428D01*
X0148405Y0073375D01*
X0148368Y0073325D01*
X0148328Y0073277D01*
X0148285Y0073232D01*
X0148239Y0073189D01*
X0148191Y0073150D01*
X0148140Y0073114D01*
X0148087Y0073081D01*
X0148032Y0073051D01*
X0147975Y0073025D01*
X0147917Y0073003D01*
X0147857Y0072985D01*
X0147797Y0072970D01*
X0147735Y0072959D01*
X0147673Y0072952D01*
X0147611Y0072949D01*
X0147548Y0072950D01*
X0147486Y0072955D01*
X0147424Y0072964D01*
X0147363Y0072977D01*
X0147303Y0072993D01*
X0147244Y0073014D01*
X0147186Y0073038D01*
X0147130Y0073066D01*
X0147076Y0073097D01*
X0147024Y0073131D01*
X0146975Y0073169D01*
X0146927Y0073210D01*
X0146883Y0073254D01*
X0146841Y0073300D01*
X0146803Y0073350D01*
X0146767Y0073401D01*
X0146735Y0073455D01*
X0146707Y0073510D01*
X0146681Y0073567D01*
X0146660Y0073626D01*
X0146643Y0073686D01*
X0146629Y0073747D01*
X0146619Y0073808D01*
X0146613Y0073871D01*
X0146611Y0073933D01*
X0146611Y0078933D02*
X0146613Y0078995D01*
X0146619Y0079058D01*
X0146629Y0079119D01*
X0146643Y0079180D01*
X0146660Y0079240D01*
X0146681Y0079299D01*
X0146707Y0079356D01*
X0146735Y0079411D01*
X0146767Y0079465D01*
X0146803Y0079516D01*
X0146841Y0079566D01*
X0146883Y0079612D01*
X0146927Y0079656D01*
X0146975Y0079697D01*
X0147024Y0079735D01*
X0147076Y0079769D01*
X0147130Y0079800D01*
X0147186Y0079828D01*
X0147244Y0079852D01*
X0147303Y0079873D01*
X0147363Y0079889D01*
X0147424Y0079902D01*
X0147486Y0079911D01*
X0147548Y0079916D01*
X0147611Y0079917D01*
X0147673Y0079914D01*
X0147735Y0079907D01*
X0147797Y0079896D01*
X0147857Y0079881D01*
X0147917Y0079863D01*
X0147975Y0079841D01*
X0148032Y0079815D01*
X0148087Y0079785D01*
X0148140Y0079752D01*
X0148191Y0079716D01*
X0148239Y0079677D01*
X0148285Y0079634D01*
X0148328Y0079589D01*
X0148368Y0079541D01*
X0148405Y0079491D01*
X0148439Y0079438D01*
X0148470Y0079384D01*
X0148496Y0079328D01*
X0148520Y0079270D01*
X0148539Y0079210D01*
X0148555Y0079150D01*
X0148567Y0079088D01*
X0148575Y0079027D01*
X0148579Y0078964D01*
X0148579Y0078902D01*
X0148575Y0078839D01*
X0148567Y0078778D01*
X0148555Y0078716D01*
X0148539Y0078656D01*
X0148520Y0078596D01*
X0148496Y0078538D01*
X0148470Y0078482D01*
X0148439Y0078428D01*
X0148405Y0078375D01*
X0148368Y0078325D01*
X0148328Y0078277D01*
X0148285Y0078232D01*
X0148239Y0078189D01*
X0148191Y0078150D01*
X0148140Y0078114D01*
X0148087Y0078081D01*
X0148032Y0078051D01*
X0147975Y0078025D01*
X0147917Y0078003D01*
X0147857Y0077985D01*
X0147797Y0077970D01*
X0147735Y0077959D01*
X0147673Y0077952D01*
X0147611Y0077949D01*
X0147548Y0077950D01*
X0147486Y0077955D01*
X0147424Y0077964D01*
X0147363Y0077977D01*
X0147303Y0077993D01*
X0147244Y0078014D01*
X0147186Y0078038D01*
X0147130Y0078066D01*
X0147076Y0078097D01*
X0147024Y0078131D01*
X0146975Y0078169D01*
X0146927Y0078210D01*
X0146883Y0078254D01*
X0146841Y0078300D01*
X0146803Y0078350D01*
X0146767Y0078401D01*
X0146735Y0078455D01*
X0146707Y0078510D01*
X0146681Y0078567D01*
X0146660Y0078626D01*
X0146643Y0078686D01*
X0146629Y0078747D01*
X0146619Y0078808D01*
X0146613Y0078871D01*
X0146611Y0078933D01*
X0146611Y0083933D02*
X0146613Y0083995D01*
X0146619Y0084058D01*
X0146629Y0084119D01*
X0146643Y0084180D01*
X0146660Y0084240D01*
X0146681Y0084299D01*
X0146707Y0084356D01*
X0146735Y0084411D01*
X0146767Y0084465D01*
X0146803Y0084516D01*
X0146841Y0084566D01*
X0146883Y0084612D01*
X0146927Y0084656D01*
X0146975Y0084697D01*
X0147024Y0084735D01*
X0147076Y0084769D01*
X0147130Y0084800D01*
X0147186Y0084828D01*
X0147244Y0084852D01*
X0147303Y0084873D01*
X0147363Y0084889D01*
X0147424Y0084902D01*
X0147486Y0084911D01*
X0147548Y0084916D01*
X0147611Y0084917D01*
X0147673Y0084914D01*
X0147735Y0084907D01*
X0147797Y0084896D01*
X0147857Y0084881D01*
X0147917Y0084863D01*
X0147975Y0084841D01*
X0148032Y0084815D01*
X0148087Y0084785D01*
X0148140Y0084752D01*
X0148191Y0084716D01*
X0148239Y0084677D01*
X0148285Y0084634D01*
X0148328Y0084589D01*
X0148368Y0084541D01*
X0148405Y0084491D01*
X0148439Y0084438D01*
X0148470Y0084384D01*
X0148496Y0084328D01*
X0148520Y0084270D01*
X0148539Y0084210D01*
X0148555Y0084150D01*
X0148567Y0084088D01*
X0148575Y0084027D01*
X0148579Y0083964D01*
X0148579Y0083902D01*
X0148575Y0083839D01*
X0148567Y0083778D01*
X0148555Y0083716D01*
X0148539Y0083656D01*
X0148520Y0083596D01*
X0148496Y0083538D01*
X0148470Y0083482D01*
X0148439Y0083428D01*
X0148405Y0083375D01*
X0148368Y0083325D01*
X0148328Y0083277D01*
X0148285Y0083232D01*
X0148239Y0083189D01*
X0148191Y0083150D01*
X0148140Y0083114D01*
X0148087Y0083081D01*
X0148032Y0083051D01*
X0147975Y0083025D01*
X0147917Y0083003D01*
X0147857Y0082985D01*
X0147797Y0082970D01*
X0147735Y0082959D01*
X0147673Y0082952D01*
X0147611Y0082949D01*
X0147548Y0082950D01*
X0147486Y0082955D01*
X0147424Y0082964D01*
X0147363Y0082977D01*
X0147303Y0082993D01*
X0147244Y0083014D01*
X0147186Y0083038D01*
X0147130Y0083066D01*
X0147076Y0083097D01*
X0147024Y0083131D01*
X0146975Y0083169D01*
X0146927Y0083210D01*
X0146883Y0083254D01*
X0146841Y0083300D01*
X0146803Y0083350D01*
X0146767Y0083401D01*
X0146735Y0083455D01*
X0146707Y0083510D01*
X0146681Y0083567D01*
X0146660Y0083626D01*
X0146643Y0083686D01*
X0146629Y0083747D01*
X0146619Y0083808D01*
X0146613Y0083871D01*
X0146611Y0083933D01*
X0146611Y0088933D02*
X0146613Y0088995D01*
X0146619Y0089058D01*
X0146629Y0089119D01*
X0146643Y0089180D01*
X0146660Y0089240D01*
X0146681Y0089299D01*
X0146707Y0089356D01*
X0146735Y0089411D01*
X0146767Y0089465D01*
X0146803Y0089516D01*
X0146841Y0089566D01*
X0146883Y0089612D01*
X0146927Y0089656D01*
X0146975Y0089697D01*
X0147024Y0089735D01*
X0147076Y0089769D01*
X0147130Y0089800D01*
X0147186Y0089828D01*
X0147244Y0089852D01*
X0147303Y0089873D01*
X0147363Y0089889D01*
X0147424Y0089902D01*
X0147486Y0089911D01*
X0147548Y0089916D01*
X0147611Y0089917D01*
X0147673Y0089914D01*
X0147735Y0089907D01*
X0147797Y0089896D01*
X0147857Y0089881D01*
X0147917Y0089863D01*
X0147975Y0089841D01*
X0148032Y0089815D01*
X0148087Y0089785D01*
X0148140Y0089752D01*
X0148191Y0089716D01*
X0148239Y0089677D01*
X0148285Y0089634D01*
X0148328Y0089589D01*
X0148368Y0089541D01*
X0148405Y0089491D01*
X0148439Y0089438D01*
X0148470Y0089384D01*
X0148496Y0089328D01*
X0148520Y0089270D01*
X0148539Y0089210D01*
X0148555Y0089150D01*
X0148567Y0089088D01*
X0148575Y0089027D01*
X0148579Y0088964D01*
X0148579Y0088902D01*
X0148575Y0088839D01*
X0148567Y0088778D01*
X0148555Y0088716D01*
X0148539Y0088656D01*
X0148520Y0088596D01*
X0148496Y0088538D01*
X0148470Y0088482D01*
X0148439Y0088428D01*
X0148405Y0088375D01*
X0148368Y0088325D01*
X0148328Y0088277D01*
X0148285Y0088232D01*
X0148239Y0088189D01*
X0148191Y0088150D01*
X0148140Y0088114D01*
X0148087Y0088081D01*
X0148032Y0088051D01*
X0147975Y0088025D01*
X0147917Y0088003D01*
X0147857Y0087985D01*
X0147797Y0087970D01*
X0147735Y0087959D01*
X0147673Y0087952D01*
X0147611Y0087949D01*
X0147548Y0087950D01*
X0147486Y0087955D01*
X0147424Y0087964D01*
X0147363Y0087977D01*
X0147303Y0087993D01*
X0147244Y0088014D01*
X0147186Y0088038D01*
X0147130Y0088066D01*
X0147076Y0088097D01*
X0147024Y0088131D01*
X0146975Y0088169D01*
X0146927Y0088210D01*
X0146883Y0088254D01*
X0146841Y0088300D01*
X0146803Y0088350D01*
X0146767Y0088401D01*
X0146735Y0088455D01*
X0146707Y0088510D01*
X0146681Y0088567D01*
X0146660Y0088626D01*
X0146643Y0088686D01*
X0146629Y0088747D01*
X0146619Y0088808D01*
X0146613Y0088871D01*
X0146611Y0088933D01*
X0146611Y0093933D02*
X0146613Y0093995D01*
X0146619Y0094058D01*
X0146629Y0094119D01*
X0146643Y0094180D01*
X0146660Y0094240D01*
X0146681Y0094299D01*
X0146707Y0094356D01*
X0146735Y0094411D01*
X0146767Y0094465D01*
X0146803Y0094516D01*
X0146841Y0094566D01*
X0146883Y0094612D01*
X0146927Y0094656D01*
X0146975Y0094697D01*
X0147024Y0094735D01*
X0147076Y0094769D01*
X0147130Y0094800D01*
X0147186Y0094828D01*
X0147244Y0094852D01*
X0147303Y0094873D01*
X0147363Y0094889D01*
X0147424Y0094902D01*
X0147486Y0094911D01*
X0147548Y0094916D01*
X0147611Y0094917D01*
X0147673Y0094914D01*
X0147735Y0094907D01*
X0147797Y0094896D01*
X0147857Y0094881D01*
X0147917Y0094863D01*
X0147975Y0094841D01*
X0148032Y0094815D01*
X0148087Y0094785D01*
X0148140Y0094752D01*
X0148191Y0094716D01*
X0148239Y0094677D01*
X0148285Y0094634D01*
X0148328Y0094589D01*
X0148368Y0094541D01*
X0148405Y0094491D01*
X0148439Y0094438D01*
X0148470Y0094384D01*
X0148496Y0094328D01*
X0148520Y0094270D01*
X0148539Y0094210D01*
X0148555Y0094150D01*
X0148567Y0094088D01*
X0148575Y0094027D01*
X0148579Y0093964D01*
X0148579Y0093902D01*
X0148575Y0093839D01*
X0148567Y0093778D01*
X0148555Y0093716D01*
X0148539Y0093656D01*
X0148520Y0093596D01*
X0148496Y0093538D01*
X0148470Y0093482D01*
X0148439Y0093428D01*
X0148405Y0093375D01*
X0148368Y0093325D01*
X0148328Y0093277D01*
X0148285Y0093232D01*
X0148239Y0093189D01*
X0148191Y0093150D01*
X0148140Y0093114D01*
X0148087Y0093081D01*
X0148032Y0093051D01*
X0147975Y0093025D01*
X0147917Y0093003D01*
X0147857Y0092985D01*
X0147797Y0092970D01*
X0147735Y0092959D01*
X0147673Y0092952D01*
X0147611Y0092949D01*
X0147548Y0092950D01*
X0147486Y0092955D01*
X0147424Y0092964D01*
X0147363Y0092977D01*
X0147303Y0092993D01*
X0147244Y0093014D01*
X0147186Y0093038D01*
X0147130Y0093066D01*
X0147076Y0093097D01*
X0147024Y0093131D01*
X0146975Y0093169D01*
X0146927Y0093210D01*
X0146883Y0093254D01*
X0146841Y0093300D01*
X0146803Y0093350D01*
X0146767Y0093401D01*
X0146735Y0093455D01*
X0146707Y0093510D01*
X0146681Y0093567D01*
X0146660Y0093626D01*
X0146643Y0093686D01*
X0146629Y0093747D01*
X0146619Y0093808D01*
X0146613Y0093871D01*
X0146611Y0093933D01*
X0146611Y0098933D02*
X0146613Y0098995D01*
X0146619Y0099058D01*
X0146629Y0099119D01*
X0146643Y0099180D01*
X0146660Y0099240D01*
X0146681Y0099299D01*
X0146707Y0099356D01*
X0146735Y0099411D01*
X0146767Y0099465D01*
X0146803Y0099516D01*
X0146841Y0099566D01*
X0146883Y0099612D01*
X0146927Y0099656D01*
X0146975Y0099697D01*
X0147024Y0099735D01*
X0147076Y0099769D01*
X0147130Y0099800D01*
X0147186Y0099828D01*
X0147244Y0099852D01*
X0147303Y0099873D01*
X0147363Y0099889D01*
X0147424Y0099902D01*
X0147486Y0099911D01*
X0147548Y0099916D01*
X0147611Y0099917D01*
X0147673Y0099914D01*
X0147735Y0099907D01*
X0147797Y0099896D01*
X0147857Y0099881D01*
X0147917Y0099863D01*
X0147975Y0099841D01*
X0148032Y0099815D01*
X0148087Y0099785D01*
X0148140Y0099752D01*
X0148191Y0099716D01*
X0148239Y0099677D01*
X0148285Y0099634D01*
X0148328Y0099589D01*
X0148368Y0099541D01*
X0148405Y0099491D01*
X0148439Y0099438D01*
X0148470Y0099384D01*
X0148496Y0099328D01*
X0148520Y0099270D01*
X0148539Y0099210D01*
X0148555Y0099150D01*
X0148567Y0099088D01*
X0148575Y0099027D01*
X0148579Y0098964D01*
X0148579Y0098902D01*
X0148575Y0098839D01*
X0148567Y0098778D01*
X0148555Y0098716D01*
X0148539Y0098656D01*
X0148520Y0098596D01*
X0148496Y0098538D01*
X0148470Y0098482D01*
X0148439Y0098428D01*
X0148405Y0098375D01*
X0148368Y0098325D01*
X0148328Y0098277D01*
X0148285Y0098232D01*
X0148239Y0098189D01*
X0148191Y0098150D01*
X0148140Y0098114D01*
X0148087Y0098081D01*
X0148032Y0098051D01*
X0147975Y0098025D01*
X0147917Y0098003D01*
X0147857Y0097985D01*
X0147797Y0097970D01*
X0147735Y0097959D01*
X0147673Y0097952D01*
X0147611Y0097949D01*
X0147548Y0097950D01*
X0147486Y0097955D01*
X0147424Y0097964D01*
X0147363Y0097977D01*
X0147303Y0097993D01*
X0147244Y0098014D01*
X0147186Y0098038D01*
X0147130Y0098066D01*
X0147076Y0098097D01*
X0147024Y0098131D01*
X0146975Y0098169D01*
X0146927Y0098210D01*
X0146883Y0098254D01*
X0146841Y0098300D01*
X0146803Y0098350D01*
X0146767Y0098401D01*
X0146735Y0098455D01*
X0146707Y0098510D01*
X0146681Y0098567D01*
X0146660Y0098626D01*
X0146643Y0098686D01*
X0146629Y0098747D01*
X0146619Y0098808D01*
X0146613Y0098871D01*
X0146611Y0098933D01*
X0132658Y0090933D02*
X0132660Y0091058D01*
X0132666Y0091183D01*
X0132676Y0091307D01*
X0132690Y0091431D01*
X0132707Y0091555D01*
X0132729Y0091678D01*
X0132755Y0091800D01*
X0132784Y0091922D01*
X0132817Y0092042D01*
X0132855Y0092161D01*
X0132895Y0092280D01*
X0132940Y0092396D01*
X0132988Y0092511D01*
X0133040Y0092625D01*
X0133096Y0092737D01*
X0133155Y0092847D01*
X0133217Y0092955D01*
X0133283Y0093062D01*
X0133352Y0093166D01*
X0133425Y0093267D01*
X0133500Y0093367D01*
X0133579Y0093464D01*
X0133661Y0093558D01*
X0133746Y0093650D01*
X0133833Y0093739D01*
X0133924Y0093825D01*
X0134017Y0093908D01*
X0134113Y0093989D01*
X0134211Y0094066D01*
X0134311Y0094140D01*
X0134414Y0094211D01*
X0134519Y0094278D01*
X0134627Y0094343D01*
X0134736Y0094403D01*
X0134847Y0094461D01*
X0134960Y0094514D01*
X0135074Y0094564D01*
X0135190Y0094611D01*
X0135307Y0094653D01*
X0135426Y0094692D01*
X0135546Y0094728D01*
X0135667Y0094759D01*
X0135789Y0094787D01*
X0135911Y0094810D01*
X0136035Y0094830D01*
X0136159Y0094846D01*
X0136283Y0094858D01*
X0136408Y0094866D01*
X0136533Y0094870D01*
X0136657Y0094870D01*
X0136782Y0094866D01*
X0136907Y0094858D01*
X0137031Y0094846D01*
X0137155Y0094830D01*
X0137279Y0094810D01*
X0137401Y0094787D01*
X0137523Y0094759D01*
X0137644Y0094728D01*
X0137764Y0094692D01*
X0137883Y0094653D01*
X0138000Y0094611D01*
X0138116Y0094564D01*
X0138230Y0094514D01*
X0138343Y0094461D01*
X0138454Y0094403D01*
X0138564Y0094343D01*
X0138671Y0094278D01*
X0138776Y0094211D01*
X0138879Y0094140D01*
X0138979Y0094066D01*
X0139077Y0093989D01*
X0139173Y0093908D01*
X0139266Y0093825D01*
X0139357Y0093739D01*
X0139444Y0093650D01*
X0139529Y0093558D01*
X0139611Y0093464D01*
X0139690Y0093367D01*
X0139765Y0093267D01*
X0139838Y0093166D01*
X0139907Y0093062D01*
X0139973Y0092955D01*
X0140035Y0092847D01*
X0140094Y0092737D01*
X0140150Y0092625D01*
X0140202Y0092511D01*
X0140250Y0092396D01*
X0140295Y0092280D01*
X0140335Y0092161D01*
X0140373Y0092042D01*
X0140406Y0091922D01*
X0140435Y0091800D01*
X0140461Y0091678D01*
X0140483Y0091555D01*
X0140500Y0091431D01*
X0140514Y0091307D01*
X0140524Y0091183D01*
X0140530Y0091058D01*
X0140532Y0090933D01*
X0140530Y0090808D01*
X0140524Y0090683D01*
X0140514Y0090559D01*
X0140500Y0090435D01*
X0140483Y0090311D01*
X0140461Y0090188D01*
X0140435Y0090066D01*
X0140406Y0089944D01*
X0140373Y0089824D01*
X0140335Y0089705D01*
X0140295Y0089586D01*
X0140250Y0089470D01*
X0140202Y0089355D01*
X0140150Y0089241D01*
X0140094Y0089129D01*
X0140035Y0089019D01*
X0139973Y0088911D01*
X0139907Y0088804D01*
X0139838Y0088700D01*
X0139765Y0088599D01*
X0139690Y0088499D01*
X0139611Y0088402D01*
X0139529Y0088308D01*
X0139444Y0088216D01*
X0139357Y0088127D01*
X0139266Y0088041D01*
X0139173Y0087958D01*
X0139077Y0087877D01*
X0138979Y0087800D01*
X0138879Y0087726D01*
X0138776Y0087655D01*
X0138671Y0087588D01*
X0138563Y0087523D01*
X0138454Y0087463D01*
X0138343Y0087405D01*
X0138230Y0087352D01*
X0138116Y0087302D01*
X0138000Y0087255D01*
X0137883Y0087213D01*
X0137764Y0087174D01*
X0137644Y0087138D01*
X0137523Y0087107D01*
X0137401Y0087079D01*
X0137279Y0087056D01*
X0137155Y0087036D01*
X0137031Y0087020D01*
X0136907Y0087008D01*
X0136782Y0087000D01*
X0136657Y0086996D01*
X0136533Y0086996D01*
X0136408Y0087000D01*
X0136283Y0087008D01*
X0136159Y0087020D01*
X0136035Y0087036D01*
X0135911Y0087056D01*
X0135789Y0087079D01*
X0135667Y0087107D01*
X0135546Y0087138D01*
X0135426Y0087174D01*
X0135307Y0087213D01*
X0135190Y0087255D01*
X0135074Y0087302D01*
X0134960Y0087352D01*
X0134847Y0087405D01*
X0134736Y0087463D01*
X0134626Y0087523D01*
X0134519Y0087588D01*
X0134414Y0087655D01*
X0134311Y0087726D01*
X0134211Y0087800D01*
X0134113Y0087877D01*
X0134017Y0087958D01*
X0133924Y0088041D01*
X0133833Y0088127D01*
X0133746Y0088216D01*
X0133661Y0088308D01*
X0133579Y0088402D01*
X0133500Y0088499D01*
X0133425Y0088599D01*
X0133352Y0088700D01*
X0133283Y0088804D01*
X0133217Y0088911D01*
X0133155Y0089019D01*
X0133096Y0089129D01*
X0133040Y0089241D01*
X0132988Y0089355D01*
X0132940Y0089470D01*
X0132895Y0089586D01*
X0132855Y0089705D01*
X0132817Y0089824D01*
X0132784Y0089944D01*
X0132755Y0090066D01*
X0132729Y0090188D01*
X0132707Y0090311D01*
X0132690Y0090435D01*
X0132676Y0090559D01*
X0132666Y0090683D01*
X0132660Y0090808D01*
X0132658Y0090933D01*
X0132658Y0069933D02*
X0132660Y0070058D01*
X0132666Y0070183D01*
X0132676Y0070307D01*
X0132690Y0070431D01*
X0132707Y0070555D01*
X0132729Y0070678D01*
X0132755Y0070800D01*
X0132784Y0070922D01*
X0132817Y0071042D01*
X0132855Y0071161D01*
X0132895Y0071280D01*
X0132940Y0071396D01*
X0132988Y0071511D01*
X0133040Y0071625D01*
X0133096Y0071737D01*
X0133155Y0071847D01*
X0133217Y0071955D01*
X0133283Y0072062D01*
X0133352Y0072166D01*
X0133425Y0072267D01*
X0133500Y0072367D01*
X0133579Y0072464D01*
X0133661Y0072558D01*
X0133746Y0072650D01*
X0133833Y0072739D01*
X0133924Y0072825D01*
X0134017Y0072908D01*
X0134113Y0072989D01*
X0134211Y0073066D01*
X0134311Y0073140D01*
X0134414Y0073211D01*
X0134519Y0073278D01*
X0134627Y0073343D01*
X0134736Y0073403D01*
X0134847Y0073461D01*
X0134960Y0073514D01*
X0135074Y0073564D01*
X0135190Y0073611D01*
X0135307Y0073653D01*
X0135426Y0073692D01*
X0135546Y0073728D01*
X0135667Y0073759D01*
X0135789Y0073787D01*
X0135911Y0073810D01*
X0136035Y0073830D01*
X0136159Y0073846D01*
X0136283Y0073858D01*
X0136408Y0073866D01*
X0136533Y0073870D01*
X0136657Y0073870D01*
X0136782Y0073866D01*
X0136907Y0073858D01*
X0137031Y0073846D01*
X0137155Y0073830D01*
X0137279Y0073810D01*
X0137401Y0073787D01*
X0137523Y0073759D01*
X0137644Y0073728D01*
X0137764Y0073692D01*
X0137883Y0073653D01*
X0138000Y0073611D01*
X0138116Y0073564D01*
X0138230Y0073514D01*
X0138343Y0073461D01*
X0138454Y0073403D01*
X0138564Y0073343D01*
X0138671Y0073278D01*
X0138776Y0073211D01*
X0138879Y0073140D01*
X0138979Y0073066D01*
X0139077Y0072989D01*
X0139173Y0072908D01*
X0139266Y0072825D01*
X0139357Y0072739D01*
X0139444Y0072650D01*
X0139529Y0072558D01*
X0139611Y0072464D01*
X0139690Y0072367D01*
X0139765Y0072267D01*
X0139838Y0072166D01*
X0139907Y0072062D01*
X0139973Y0071955D01*
X0140035Y0071847D01*
X0140094Y0071737D01*
X0140150Y0071625D01*
X0140202Y0071511D01*
X0140250Y0071396D01*
X0140295Y0071280D01*
X0140335Y0071161D01*
X0140373Y0071042D01*
X0140406Y0070922D01*
X0140435Y0070800D01*
X0140461Y0070678D01*
X0140483Y0070555D01*
X0140500Y0070431D01*
X0140514Y0070307D01*
X0140524Y0070183D01*
X0140530Y0070058D01*
X0140532Y0069933D01*
X0140530Y0069808D01*
X0140524Y0069683D01*
X0140514Y0069559D01*
X0140500Y0069435D01*
X0140483Y0069311D01*
X0140461Y0069188D01*
X0140435Y0069066D01*
X0140406Y0068944D01*
X0140373Y0068824D01*
X0140335Y0068705D01*
X0140295Y0068586D01*
X0140250Y0068470D01*
X0140202Y0068355D01*
X0140150Y0068241D01*
X0140094Y0068129D01*
X0140035Y0068019D01*
X0139973Y0067911D01*
X0139907Y0067804D01*
X0139838Y0067700D01*
X0139765Y0067599D01*
X0139690Y0067499D01*
X0139611Y0067402D01*
X0139529Y0067308D01*
X0139444Y0067216D01*
X0139357Y0067127D01*
X0139266Y0067041D01*
X0139173Y0066958D01*
X0139077Y0066877D01*
X0138979Y0066800D01*
X0138879Y0066726D01*
X0138776Y0066655D01*
X0138671Y0066588D01*
X0138563Y0066523D01*
X0138454Y0066463D01*
X0138343Y0066405D01*
X0138230Y0066352D01*
X0138116Y0066302D01*
X0138000Y0066255D01*
X0137883Y0066213D01*
X0137764Y0066174D01*
X0137644Y0066138D01*
X0137523Y0066107D01*
X0137401Y0066079D01*
X0137279Y0066056D01*
X0137155Y0066036D01*
X0137031Y0066020D01*
X0136907Y0066008D01*
X0136782Y0066000D01*
X0136657Y0065996D01*
X0136533Y0065996D01*
X0136408Y0066000D01*
X0136283Y0066008D01*
X0136159Y0066020D01*
X0136035Y0066036D01*
X0135911Y0066056D01*
X0135789Y0066079D01*
X0135667Y0066107D01*
X0135546Y0066138D01*
X0135426Y0066174D01*
X0135307Y0066213D01*
X0135190Y0066255D01*
X0135074Y0066302D01*
X0134960Y0066352D01*
X0134847Y0066405D01*
X0134736Y0066463D01*
X0134626Y0066523D01*
X0134519Y0066588D01*
X0134414Y0066655D01*
X0134311Y0066726D01*
X0134211Y0066800D01*
X0134113Y0066877D01*
X0134017Y0066958D01*
X0133924Y0067041D01*
X0133833Y0067127D01*
X0133746Y0067216D01*
X0133661Y0067308D01*
X0133579Y0067402D01*
X0133500Y0067499D01*
X0133425Y0067599D01*
X0133352Y0067700D01*
X0133283Y0067804D01*
X0133217Y0067911D01*
X0133155Y0068019D01*
X0133096Y0068129D01*
X0133040Y0068241D01*
X0132988Y0068355D01*
X0132940Y0068470D01*
X0132895Y0068586D01*
X0132855Y0068705D01*
X0132817Y0068824D01*
X0132784Y0068944D01*
X0132755Y0069066D01*
X0132729Y0069188D01*
X0132707Y0069311D01*
X0132690Y0069435D01*
X0132676Y0069559D01*
X0132666Y0069683D01*
X0132660Y0069808D01*
X0132658Y0069933D01*
D11*
X0130095Y0204233D03*
X0120995Y0204233D03*
X0139195Y0204233D03*
D12*
X0130095Y0228634D03*
D13*
X0164095Y0223776D03*
X0196595Y0223776D03*
X0229095Y0223776D03*
X0261595Y0223776D03*
X0294095Y0223776D03*
X0326595Y0223776D03*
X0359095Y0223776D03*
D14*
X0350119Y0195035D03*
X0335572Y0195035D03*
X0317619Y0195035D03*
X0303072Y0195035D03*
X0285119Y0195035D03*
X0270572Y0195035D03*
X0252619Y0195035D03*
X0238072Y0195035D03*
X0220119Y0195035D03*
X0205572Y0195035D03*
X0187619Y0195035D03*
X0173072Y0195035D03*
X0155119Y0195035D03*
X0368072Y0195035D03*
D15*
X0359095Y0193067D03*
X0359095Y0184799D03*
X0326595Y0184799D03*
X0326595Y0193067D03*
X0294095Y0193067D03*
X0294095Y0184799D03*
X0261595Y0184799D03*
X0261595Y0193067D03*
X0229095Y0193067D03*
X0229095Y0184799D03*
X0196595Y0184799D03*
X0196595Y0193067D03*
X0164095Y0193067D03*
X0164095Y0184799D03*
X0193461Y0133933D03*
X0201729Y0133933D03*
X0201729Y0116433D03*
X0193461Y0116433D03*
D16*
X0188524Y0243933D03*
X0204666Y0243933D03*
X0221024Y0243933D03*
X0237166Y0243933D03*
X0253524Y0243933D03*
X0269666Y0243933D03*
X0286024Y0243933D03*
X0302166Y0243933D03*
X0318524Y0243933D03*
X0334666Y0243933D03*
X0351024Y0243933D03*
X0367166Y0243933D03*
X0172166Y0243933D03*
X0156024Y0243933D03*
X0138166Y0243933D03*
X0122024Y0243933D03*
D17*
X0174095Y0184780D03*
X0174095Y0178087D03*
X0206595Y0178087D03*
X0206595Y0184780D03*
X0239095Y0184780D03*
X0239095Y0178087D03*
X0271595Y0178087D03*
X0271595Y0184780D03*
X0304095Y0184780D03*
X0304095Y0178087D03*
X0336595Y0178087D03*
X0336595Y0184780D03*
X0369095Y0184780D03*
X0369095Y0178087D03*
X0302595Y0119780D03*
X0302595Y0113087D03*
X0200942Y0106433D03*
X0194249Y0106433D03*
D18*
X0130095Y0158303D03*
X0130095Y0179563D03*
X0417595Y0208303D03*
X0417595Y0229563D03*
D19*
X0185548Y0146433D03*
X0179642Y0146433D03*
X0173095Y0146433D03*
X0167095Y0146433D03*
X0167095Y0136433D03*
X0173095Y0136433D03*
X0179642Y0136433D03*
X0185548Y0136433D03*
X0138095Y0193933D03*
X0132095Y0193933D03*
X0125595Y0193933D03*
X0119595Y0193933D03*
D20*
X0121158Y0124642D03*
X0129032Y0124642D03*
D21*
X0130213Y0135272D03*
X0127654Y0135272D03*
X0125095Y0135272D03*
X0122536Y0135272D03*
X0119977Y0135272D03*
D22*
X0220695Y0135508D03*
X0220695Y0138657D03*
X0220695Y0141807D03*
X0220695Y0144957D03*
X0220695Y0132358D03*
X0220695Y0129209D03*
X0220695Y0126059D03*
X0220695Y0122909D03*
X0254495Y0122909D03*
X0254495Y0126059D03*
X0254495Y0129209D03*
X0254495Y0132358D03*
X0254495Y0135508D03*
X0254495Y0138657D03*
X0254495Y0141807D03*
X0254495Y0144957D03*
D23*
X0248619Y0150833D03*
X0245469Y0150833D03*
X0242320Y0150833D03*
X0239170Y0150833D03*
X0236020Y0150833D03*
X0232871Y0150833D03*
X0229721Y0150833D03*
X0226572Y0150833D03*
X0226572Y0117033D03*
X0229721Y0117033D03*
X0232871Y0117033D03*
X0236020Y0117033D03*
X0239170Y0117033D03*
X0242320Y0117033D03*
X0245469Y0117033D03*
X0248619Y0117033D03*
D24*
X0248595Y0101433D03*
X0256595Y0101433D03*
X0239095Y0101433D03*
X0231095Y0101433D03*
X0201595Y0143933D03*
X0193595Y0143933D03*
X0263595Y0151433D03*
X0271595Y0151433D03*
X0273595Y0124433D03*
X0281595Y0124433D03*
X0281595Y0109433D03*
X0273595Y0109433D03*
X0318595Y0126433D03*
X0318595Y0133933D03*
X0318595Y0141433D03*
X0318595Y0148933D03*
X0318595Y0156433D03*
X0326595Y0156433D03*
X0326595Y0148933D03*
X0326595Y0141433D03*
X0326595Y0133933D03*
X0326595Y0126433D03*
D25*
X0290194Y0118508D03*
X0290194Y0114965D03*
X0264997Y0114965D03*
X0264997Y0118508D03*
D26*
X0244682Y0085764D03*
X0244682Y0077102D03*
X0230509Y0077102D03*
X0230509Y0085764D03*
X0315509Y0050764D03*
X0315509Y0042102D03*
X0329682Y0042102D03*
X0329682Y0050764D03*
X0370509Y0050764D03*
X0370509Y0042102D03*
X0384682Y0042102D03*
X0384682Y0050764D03*
X0425509Y0050764D03*
X0425509Y0042102D03*
X0439682Y0042102D03*
X0439682Y0050764D03*
X0439682Y0107102D03*
X0439682Y0115764D03*
X0425509Y0115764D03*
X0425509Y0107102D03*
X0384682Y0107102D03*
X0384682Y0115764D03*
X0370509Y0115764D03*
X0370509Y0107102D03*
D27*
X0354170Y0143933D03*
X0409170Y0143933D03*
D28*
X0432595Y0102358D03*
X0377595Y0055508D03*
X0322595Y0102358D03*
D29*
X0211926Y0068933D03*
X0203264Y0065193D03*
X0203264Y0072673D03*
D30*
X0227359Y0066020D03*
X0227359Y0052634D03*
X0247438Y0052634D03*
X0229239Y0293933D03*
X0220951Y0293933D03*
M02*
